<svg xmlns="http://www.w3.org/2000/svg" xmlns:xlink="http://www.w3.org/1999/xlink" viewBox="0 0 32 32" width="20" height="23" style="" filter="none">
    
    <g>
    <path d="M9.721 27.765l-7.055 1.568 1.568-7.055c-0.987-1.811-1.568-3.967-1.568-6.259 0-0.007 0-0.014 0-0.021v0.001c0-7.364 5.969-13.333 13.333-13.333s13.333 5.969 13.333 13.333-5.969 13.333-13.333 13.333c-0.006 0-0.013 0-0.020 0-2.291 0-4.447-0.581-6.329-1.603l0.070 0.035zM10.108 24.948l0.871 0.467c1.447 0.788 3.169 1.252 4.999 1.252 0.008 0 0.016 0 0.023-0h-0.001c5.891 0 10.667-4.776 10.667-10.667s-4.776-10.667-10.667-10.667c-5.891 0-10.667 4.776-10.667 10.667v0c0 1.779 0.433 3.491 1.253 5.021l0.465 0.871-0.873 3.929 3.929-0.873zM9.333 16h2.667c0 2.209 1.791 4 4 4s4-1.791 4-4v0h2.667c0 3.682-2.985 6.667-6.667 6.667s-6.667-2.985-6.667-6.667v0z" fill="rgba(0,0,0,1)"></path>
    </g>
  </svg>