 <svg width="20" height="20" viewBox="0 0 20 20" fill="currentColor" xmlns="http://www.w3.org/2000/svg"
    class="icon" aria-hidden="true">
    <path
    d="M7.94556 14.0277C7.9455 12.9376 7.06204 12.054 5.97192 12.054C4.88191 12.0542 3.99835 12.9376 3.99829 14.0277C3.99829 15.1177 4.88188 16.0012 5.97192 16.0013C7.06207 16.0013 7.94556 15.1178 7.94556 14.0277ZM16.0012 14.0277C16.0012 12.9376 15.1177 12.054 14.0276 12.054C12.9375 12.0541 12.054 12.9376 12.054 14.0277C12.054 15.1178 12.9375 16.0012 14.0276 16.0013C15.1177 16.0013 16.0012 15.1178 16.0012 14.0277ZM7.94556 5.97201C7.94544 4.88196 7.062 3.99837 5.97192 3.99837C4.88195 3.99849 3.99841 4.88203 3.99829 5.97201C3.99829 7.06208 4.88187 7.94552 5.97192 7.94564C7.06207 7.94564 7.94556 7.06216 7.94556 5.97201ZM16.0012 5.97201C16.0011 4.88196 15.1177 3.99837 14.0276 3.99837C12.9376 3.99843 12.0541 4.882 12.054 5.97201C12.054 7.06212 12.9375 7.94558 14.0276 7.94564C15.1177 7.94564 16.0012 7.06216 16.0012 5.97201ZM9.27563 14.0277C9.27563 15.8524 7.79661 17.3314 5.97192 17.3314C4.14734 17.3313 2.66821 15.8523 2.66821 14.0277C2.66827 12.2031 4.14737 10.7241 5.97192 10.724C7.79657 10.724 9.27558 12.203 9.27563 14.0277ZM17.3313 14.0277C17.3313 15.8524 15.8523 17.3314 14.0276 17.3314C12.203 17.3313 10.7239 15.8523 10.7239 14.0277C10.7239 12.2031 12.203 10.724 14.0276 10.724C15.8522 10.724 17.3312 12.203 17.3313 14.0277ZM9.27563 5.97201C9.27563 7.7967 7.79661 9.27572 5.97192 9.27572C4.14734 9.2756 2.66821 7.79662 2.66821 5.97201C2.66833 4.14749 4.14741 2.66841 5.97192 2.6683C7.79654 2.6683 9.27552 4.14742 9.27563 5.97201ZM17.3313 5.97201C17.3313 7.79669 15.8523 9.27572 14.0276 9.27572C12.203 9.27566 10.7239 7.79666 10.7239 5.97201C10.724 4.14746 12.203 2.66836 14.0276 2.6683C15.8522 2.6683 17.3312 4.14742 17.3313 5.97201Z">
    </path>
</svg>