<svg xmlns="http://www.w3.org/2000/svg" xmlns:xlink="http://www.w3.org/1999/xlink" viewBox="0 0 48 48" width="29" height="30" style="" filter="none">
    
    <g>
    <path d="M7 37C7 29.2967 7 11 7 11C7 7.68629 9.68629 5 13 5H35V31C35 31 18.2326 31 13 31C9.7 31 7 33.6842 7 37Z" fill="none" stroke="rgba(93,93,93,1)" stroke-width="4" stroke-linejoin="round"></path><path d="M35 31C35 31 14.1537 31 13 31C9.68629 31 7 33.6863 7 37C7 40.3137 9.68629 43 13 43C15.2091 43 25.8758 43 41 43V7" stroke="rgba(93,93,93,1)" stroke-width="4" stroke-linecap="round" stroke-linejoin="round" fill="none"></path><path d="M14 37H34" stroke="rgba(93,93,93,1)" stroke-width="4" stroke-linecap="round" stroke-linejoin="round" fill="none"></path>
    </g>
  </svg>