<svg xmlns="http://www.w3.org/2000/svg" xmlns:xlink="http://www.w3.org/1999/xlink" viewBox="0 0 32 32">
  <g>
    <path d="M5.778 13.333c1.227 0 2.222 0.995 2.222 2.222s-0.995 2.222-2.222 2.222c-1.227 0-2.222-0.995-2.222-2.222s0.995-2.222 2.222-2.222zM16 13.333c1.227 0 2.222 0.995 2.222 2.222s-0.995 2.222-2.222 2.222c-1.227 0-2.222-0.995-2.222-2.222s0.995-2.222 2.222-2.222zM26.222 13.333c1.227 0 2.222 0.995 2.222 2.222s-0.995 2.222-2.222 2.222c-1.227 0-2.222-0.995-2.222-2.222s0.995-2.222 2.222-2.222z" fill="rgba(154,154,154,1)"></path>
  </g>
</svg>
