<svg xmlns="http://www.w3.org/2000/svg" xmlns:xlink="http://www.w3.org/1999/xlink" viewBox="0 0 32 32" width="33" height="34" style="" filter="none">
    
    <g>
    <path d="M25.333 25.333v-12.268l-9.333-7.363-9.333 7.363v12.268h18.667zM28 26.667c0 0.736-0.597 1.333-1.333 1.333v0h-21.333c-0.736 0-1.333-0.597-1.333-1.333v0-14.248c0-0 0-0 0-0.001 0-0.423 0.197-0.8 0.504-1.044l0.003-0.002 10.667-8.415c0.225-0.179 0.513-0.287 0.827-0.287s0.602 0.108 0.829 0.289l-0.003-0.002 10.667 8.413c0.31 0.246 0.507 0.623 0.507 1.046 0 0.001 0 0.001 0 0.002v-0 14.248zM9.333 16h2.667c0 2.209 1.791 4 4 4s4-1.791 4-4v0h2.667c0 3.682-2.985 6.667-6.667 6.667s-6.667-2.985-6.667-6.667v0z" fill="rgba(93,93,93,1)"></path>
    </g>
  </svg>