<svg xmlns="http://www.w3.org/2000/svg" width="18" height="18" viewBox="0 0 16 16" fill="#535350" stroke="#535350" stroke-width="1">
  <defs>
    <polygon id="path-1" points="0 0 16 0 16 16 0 16" />
  </defs>
  <g fill="none" fill-rule="evenodd" stroke="none" stroke-width="1">
    <g>
      <!-- 外圈 -->
      <path fill="#535350" d="M8 1.4268C4.3755 1.4268 1.4268 4.3755 1.4268 8c0 3.6245 2.9487 6.5724 6.5732 6.5724 3.6245 0 6.5724-2.948 6.5724-6.5724 0-3.6245-2.948-6.5732-6.5724-6.5732zM8 0c4.4112 0 8 3.5888 8 8s-3.5888 8-8 8-8-3.5888-8-8 3.5888-8 8-8z"/>
      
      <!-- 内部路径1 -->
      <path fill="#535350" d="M8.667 15.37c-.52-2.55.78-3.58 1.73-4.34.55-.44.89-.72.98-1.13.04-.19.04-.29.03-.33-.18-.09-.76-.11-1.19-.13-.41-.01-.88-.03-1.38-.07-.27-.03-.99-.09-1.16-.68-.17-.66.37-1.05 1.06-1.54.67-.48 1.69-1.21 1.72-1.92.01-.19-.15-.32-.79-.65-.36-.18-.76-.39-1.09-.7-.58-.54-.69-1.09-.67-1.46.02-.64.39-1.3 1.1-1.87l.9 1.1c-.36.29-.58.6-.59.81-.01.12.07.25.22.39.18.18.47.32.77.44.68.33 1.61.81 1.56 1.95-.05 1.15-.97 2.06-1.84 2.6.12.01.24.02.37.03 1.09.04 1.92.07 2.4.67.29.36.36.85.23 1.49-.2.94-.88 1.48-1.48 1.96-.88.7-1.57 1.25-1.22 2.95z"/>
      
      <!-- 内部路径2 -->
      <path fill="#535350" d="M6.6 15.59l-1.17-.81c.75-1.07 1.54-3.69.7-4.58-.15-.16-.49-.37-.85-.6-1.17-.53-2.32-1.25-2.85-2.41-.64-1.41-1.63-2.26-1.64-2.27l.91-1c.05.04 1.21 1.01 1.99 2.73.35.76 1.25 1.32 1.97 1.78.46.29.86.54 1.14.84 1.57 1.68.24 5.19-.58 6.37z"/>
    </g>
  </g>
</svg>
