<svg width="20px" height="20px" viewBox="0 0 19 18" fill="currentColor" xmlns="http://www.w3.org/2000/svg"><path fill-rule="evenodd" clip-rule="evenodd" d="M3.23047 4.5C3.23047 4.08579 3.56626 3.75 3.98047 3.75H15.2598C15.674 3.75 16.0098 4.08579 16.0098 4.5 16.0098 4.91421 15.674 5.25 15.2598 5.25H3.98047C3.56626 5.25 3.23047 4.91421 3.23047 4.5zM3.23047 9C3.23047 8.58579 3.56626 8.25 3.98047 8.25H15.2598C15.674 8.25 16.0098 8.58579 16.0098 9 16.0098 9.41421 15.674 9.75 15.2598 9.75H3.98047C3.56626 9.75 3.23047 9.41421 3.23047 9zM3.23047 13.5C3.23047 13.0858 3.56626 12.75 3.98047 12.75H11.5127C11.9269 12.75 12.2627 13.0858 12.2627 13.5 12.2627 13.9142 11.9269 14.25 11.5127 14.25H3.98047C3.56626 14.25 3.23047 13.9142 3.23047 13.5z" fill-opacity="1"></path></svg>