<svg width="16" height="16" viewBox="0 0 20 20" fill="none" xmlns="http://www.w3.org/2000/svg">
  <path d="M15.2102 1.57437C15.2709 1.39188 15.529 1.39188 15.5897 1.57437L15.9325 2.60482C16.1315 3.20299 16.6008 3.67234 17.199 3.87131L18.2294 4.21408C18.4119 4.27478 18.4119 4.53293 18.2294 4.59363L17.199 4.9364C16.6008 5.13537 16.1315 5.60472 15.9325 6.20289L15.5897 7.23334C15.529 7.41583 15.2709 7.41583 15.2102 7.23334L14.8674 6.20289C14.6684 5.60472 14.1991 5.13537 13.6009 4.9364L12.5705 4.59363C12.388 4.53293 12.388 4.27478 12.5705 4.21408L13.6009 3.87131C14.1991 3.67234 14.6684 3.20299 14.8674 2.60482L15.2102 1.57437Z" fill="currentColor"></path>
  <path fill-rule="evenodd" clip-rule="evenodd" d="M8.10529 6.19431C7.64765 7.5701 6.56814 8.6496 5.19235 9.10724L2.42617 10.0274C1.96992 10.1791 1.96992 10.8245 2.42617 10.9763L5.19236 11.8964C6.56815 12.354 7.64765 13.4335 8.10529 14.8093L9.02543 17.5755C9.17719 18.0318 9.82255 18.0318 9.97431 17.5755L10.8945 14.8093C11.3521 13.4335 12.4316 12.354 13.8074 11.8964L16.5736 10.9763C17.0298 10.8245 17.0298 10.1791 16.5736 10.0274L13.8074 9.10724C12.4316 8.6496 11.3521 7.5701 10.8945 6.19431L9.97431 3.42812C9.82255 2.97188 9.17719 2.97188 9.02543 3.42812L8.10529 6.19431ZM9.49987 7.22075C8.86634 8.69339 7.69143 9.86829 6.2188 10.5018C7.69143 11.1354 8.86634 12.3103 9.49987 13.7829C10.1334 12.3103 11.3083 11.1354 12.7809 10.5018C11.3083 9.86829 10.1334 8.69339 9.49987 7.22075Z" fill="currentColor"></path>
</svg>
