<svg xmlns="http://www.w3.org/2000/svg" xmlns:xlink="http://www.w3.org/1999/xlink" viewBox="0 0 32 32" width="20" height="20" style="" filter="none">
    
    <g>
    <path d="M28 17.656v9.011h1.333v2.667h-26.667v-2.667h1.333v-9.011c-1.617-1.091-2.667-2.916-2.667-4.986 0-0.001 0-0.002 0-0.004v0c0-1.103 0.299-2.165 0.844-3.071l3.616-6.263c0.235-0.401 0.664-0.667 1.155-0.667h18.105c0.491 0 0.92 0.265 1.151 0.66l0.003 0.006 3.603 6.243c0.54 0.882 0.859 1.95 0.859 3.092 0 2.072-1.051 3.898-2.648 4.974l-0.021 0.014zM25.333 18.629c-0.201 0.024-0.433 0.037-0.668 0.037-1.702 0-3.238-0.709-4.33-1.849l-0.002-0.002c-1.093 1.142-2.63 1.852-4.333 1.852-0 0-0 0-0 0h0c-0.001 0-0.002 0-0.003 0-1.701 0-3.237-0.709-4.328-1.847l-0.002-0.002c-1.093 1.141-2.629 1.849-4.331 1.849-0.236 0-0.469-0.014-0.697-0.040l0.028 0.003v8.036h18.667v-8.036zM7.719 5.333l-3.244 5.617c-0.154 0.37-0.243 0.8-0.243 1.251 0 1.841 1.492 3.333 3.333 3.333 1.212 0 2.273-0.647 2.856-1.614l0.008-0.015c0.447-1.116 2.027-1.116 2.475 0 0.504 1.24 1.7 2.098 3.096 2.098s2.592-0.858 3.088-2.076l0.008-0.022c0.447-1.116 2.027-1.116 2.475 0 0.509 1.23 1.7 2.079 3.088 2.079 1.841 0 3.333-1.492 3.333-3.333 0-0.636-0.178-1.23-0.487-1.736l0.008 0.015-3.233-5.596h-16.56z" fill="rgba(0,0,0,1)"></path>
    </g>
  </svg>