<svg t="1750852462931" class="icon" viewBox="0 0 2468 1024" version="1.1" xmlns="http://www.w3.org/2000/svg" p-id="5684" width="64" height="64"><path d="M2164.736 477.696c5.12-80.896 26.624-118.784 68.096-118.784 40.96 0 61.952 38.912 65.024 118.784h-133.12z m303.616 48.128c0-90.112-19.456-161.792-58.368-211.968-39.424-50.688-98.304-76.8-173.056-76.8-153.6 0-249.344 113.664-249.344 295.424 0 102.4 25.6 178.688 75.776 227.328 45.568 43.52 110.08 65.536 194.048 65.536 76.8 0 148.48-17.92 194.048-48.128l-19.456-123.904c-44.032 24.064-96.256 37.376-154.624 37.376-34.816 0-58.88-7.168-76.288-22.528-18.944-15.872-30.208-41.984-33.28-79.36h299.52c-0.512-9.216 1.024-50.176 1.024-62.976z m-722.944 122.368c-14.848 27.648-37.376 41.984-63.488 41.984-17.92 0-34.304-3.584-48.64-10.752V409.6c30.72-32.256 58.368-35.328 68.096-35.328 46.08 0 68.096 49.664 68.096 146.432 0.512 55.296-7.168 98.304-24.064 127.488z m150.016-349.696c-32.256-41.472-76.288-61.952-133.12-61.952-52.224 0-98.304 22.016-141.312 67.584l-9.216-56.832h-159.232V1024l180.736-30.208v-181.76c27.648 8.704 56.32 13.312 81.408 13.312 45.568 0 111.104-11.264 161.792-67.072 48.64-53.248 73.728-135.68 73.728-244.224 0-96.256-18.432-168.96-54.784-215.552z m-695.296-51.2h181.248V814.08h-181.248V247.296z m91.136-55.808c52.224 0 94.72-43.008 94.72-95.744 0-53.248-41.984-95.744-94.72-95.744-53.248 0-95.744 41.984-95.744 95.744 0 52.736 41.984 95.744 95.744 95.744z m-169.472 48.64c-50.688 0-91.648 26.624-107.52 74.752L1003.52 247.808h-157.696V814.08h180.736V446.464c22.528-27.648 54.784-37.888 98.304-37.888 9.216 0 19.456 0 32.256 2.048V244.224c-13.312-3.072-24.576-4.096-35.328-4.096z m-346.624 141.312l22.016-133.632h-115.2V84.48l-155.136 25.6-22.528 137.216L449.536 256l-19.968 124.928h74.752v262.656c0 68.096 17.408 115.712 53.248 144.896 30.208 24.064 72.704 35.328 133.12 35.328 46.592 0 74.752-8.192 94.72-13.312v-141.824c-10.752 2.56-35.328 8.192-52.224 8.192-35.328 0-50.688-17.92-50.688-59.392V381.44h92.672z m-517.12 79.872C204.8 441.344 175.616 425.984 175.616 401.92c0-19.968 16.896-32.256 46.592-32.256C276.48 370.176 332.8 391.168 371.2 409.6l22.016-135.168c-30.72-14.848-93.184-38.912-179.712-38.912-61.44 0-112.128 15.872-148.48 46.08C26.624 313.344 7.168 358.4 7.168 413.184c0 98.816 60.416 141.312 159.232 177.152 63.488 22.528 84.48 38.912 84.48 63.488 0 24.064-19.968 37.888-57.344 37.888-46.08 0-121.856-22.528-171.008-51.712L0 776.704c41.984 24.064 120.832 48.64 202.752 48.64 65.024 0 118.784-15.36 155.136-44.032 40.96-32.256 61.952-79.36 61.952-140.288 0-102.4-61.952-144.384-161.792-179.712z" fill="#6772E5" p-id="5685"></path></svg>