<svg t="1750852617950" class="icon" viewBox="0 0 2813 1024" version="1.1" xmlns="http://www.w3.org/2000/svg" p-id="9459" width="64" height="64"><path d="M331.552977 619.506073c-14.504508 7.378142-32.246835 1.982587-40.189345-12.221492l-1.987452-4.371421-82.962135-182.120667a15.745145 15.745145 0 0 1-1.441329-6.408742 15.199021 15.199021 0 0 1 15.201454-15.201454 14.90589 14.90589 0 0 1 9.091924 3.031047l97.915462 69.548658a45.210277 45.210277 0 0 0 40.488558 4.620765l460.518424-204.972716C745.62292 174.139234 609.60287 110.550499 455.600879 110.550499 204.078728 110.501847 0 280.798755 0 490.590495c0 114.260248 61.401808 217.492204 157.48064 287.091948a30.351823 30.351823 0 0 1 12.767616 24.838285 36.564739 36.564739 0 0 1-1.589719 9.936044l-20.567817 76.604478a45.639635 45.639635 0 0 0-2.433838 11.126813c0.054734 8.357272 6.844182 15.102933 15.201453 15.101716a17.089168 17.089168 0 0 0 8.792712-2.831572l99.804393-57.577726a47.700065 47.700065 0 0 1 24.19364-7.004735 45.806269 45.806269 0 0 1 13.413477 2.037321 539.373077 539.373077 0 0 0 149.034577 20.814729c251.72041 0 455.799138-170.048781 455.799137-379.840521a328.817494 328.817494 0 0 0-51.914582-176.00992L335.130148 617.916355l-3.327827 1.937583-0.249344-0.347865z" fill="#00B700" p-id="9460"></path><path d="M1667.647412 445.482388h240.245733v20.318474H1667.647412v-20.318474m0 67.662161h240.245733v22.007929H1667.647412v-22.007929m6.118044 210.933856h227.973156V594.914699H1673.765456v129.163706m22.003065-109.291618h183.808906v88.774885H1695.768521v-88.774885m-171.937712-94.885631l12.029315 20.814728c13.999739-20.73202 28.035967-44.047484 42.072195-69.946392v254.750241h22.015228V425.213783a733.484137 733.484137 0 0 0 35.613583-93.097654l-20.42186-11.77389a676.143591 676.143591 0 0 1-91.308461 199.558917M1789.460951 376.131989z m0 0l17.247289-9.936044c-3.381344-7.898723-17.843281-37.357774-22.307142-47.541945l-20.275903 11.724021c7.212724 13.561867 14.011902 27.123734 20.275903 40.636948 0.875744 1.528903 1.459573 3.217142 1.690672 4.967413H1643.953676v22.00793h289.323878V376.131989H1789.460951m-459.61957-17.73503h-20.275903v76.107007h-42.315457v-108.249239h-20.324556v108.249239h-43.963558v-76.107007H1182.643433v96.425481h147.197948v-96.425481M1189.448693 498.787214H1319.709511v20.318474H1189.448693v-20.318474m148.785233 117.78755l-33.728302 28.962796v-82.416012h-109.98978V595.262564c3.312015 45.50584-7.914535 77.614016-33.680866 96.32696l11.724021 20.368342c31.529212-25.965806 46.172379-62.031857 43.910041-108.19937V583.440022h67.712029v49.081794c-0.839255 16.641566-1.629857 22.206188-7.601943 30.402908l12.722612 22.00793c11.263039-9.042055 30.967276-25.932965 59.11271-50.672729l-10.180522-17.685161M1170.769806 333.059986l-19.026752-10.978422a360.757819 360.757819 0 0 1-75.9574 106.01366l12.170407 21.410721a430.381888 430.381888 0 0 0 82.813745-116.445959m-21.958061 99.754524a452.681733 452.681733 0 0 1-78.938579 131.299548l11.77389 20.368342a928.861376 928.861376 0 0 0 38.451237-48.485802v189.523135h20.318474V501.966651a580.587773 580.587773 0 0 0 28.217197-57.974243l-19.822219-11.177898" fill="#394144" p-id="9461"></path><path d="M1413.645203 321.187576h-21.309767c-14.170022 66.23786-35.151386 122.109102-62.94409 167.614942l12.819917 22.256057 9.487225-18.978099c4.50035-7.881695 7.820879-14.092178 9.93726-18.629018 6.616731 59.779249 18.4636 107.139964 35.516279 142.079711-16.128283 27.953258-40.490991 56.418582-73.07596 85.39719l12.272577 21.113941c34.908123-32.721196 58.589697-60.872713 71.044721-84.453332a427.974809 427.974809 0 0 0 67.116036 85.843575l12.369883-21.460589c-28.863058-27.571336-53.9069-58.12385-67.663377-84.453333 24.76409-45.07405 39.992303-110.484819 45.648149-196.229873h23.693737v-20.61647h-96.222357c8.197936-24.689895 18.037891-54.198815 21.309767-79.484702z m31.149723 99.803176c-4.53684 72.200216-16.371545 129.147893-35.516279 170.844248-14.66871-37.225196-25.384409-87.417482-32.147098-150.575643a155.20249 155.20249 0 0 1 8.453361-20.317258l59.210016 0.048653z m1131.680005 82.31749c24.837069 36.961256 55.086722 87.5829 69.840573 116.793824l19.278528-12.320014c-14.899809-27.373077-45.708964-76.654347-70.740643-113.614386l-18.378458 9.140576z m-252.51831-5.017282l-14.303816-9.588179-4.476024 0.893988h-115.999573v-80.280169h176.012354v-21.908193H2189.177208v-75.262887h-21.455724v75.262887H1992.09835v21.908193h175.562318v80.280169h-119.222796v21.461806a339.996608 339.996608 0 0 0 111.827626 131.399285c-52.81222 29.806915-115.05085 49.131663-179.138272 61.053943l6.251838 20.418212 0.450035 1.092247c68.502631-13.710257 135.2781-35.569797 192.104146-68.854145 53.310908 33.284348 117.787549 55.640143 192.164963 67.066168l0.839254-1.489981 5.813966-19.126489c-68.952666-10.332561-128.673532-29.806915-178.846357-59.216097 53.74878-35.619665 97.219732-82.615487 124.05155-145.110758z m-250.32895 12.767615h218.583235c-24.837069 50.621644-64.03877 89.420746-111.973583 119.973261a312.462977 312.462977 0 0 1-106.609652-119.973261z m456.736913-195.733618c-26.576394 71.785454-69.098623 140.739336-115.002197 187.287555l8.939885 23.199915c0 0.347865 0.498687 0.84412 0.644645 1.191985a452.950537 452.950537 0 0 0 54.150162-67.064952v264.586547h21.51654V426.207509a696.414629 696.414629 0 0 0 50.172826-104.324204l-20.421861-6.558348z" fill="#394144" p-id="9462"></path><path d="M2752.973809 415.227871v-97.617466h-21.504377v97.617466h-187.640286v21.908192h187.640286v253.657993c0 10.482168-3.575954 13.215218-13.865945 14.109207-8.149283 0.397734-16.991864 2.334101-40.284217 2.483707v19.126489c31.745715 0 42.473577-0.347865 54.648849-3.825298 14.352469-3.627039 21.054342-10.92977 21.054342-32.39036V436.937804h60.462816v-21.709933h-60.511468z" fill="#394144" p-id="9463"></path></svg>