<svg width="16" height="17" viewBox="0 0 16 17" fill="none" xmlns="http://www.w3.org/2000/svg">
<path d="M8.55005 8.37721C8.55005 7.08821 9.56905 6.04421 10.825 6.04421C12.082 6.04421 13.1 7.08721 13.1 8.37721C13.1 9.66621 12.082 10.7102 10.825 10.7102C9.57005 10.7102 8.55005 9.66721 8.55005 8.37721Z" fill="#1ABCFE"/>
<path d="M4 13.0442C4 11.7552 5.019 10.7102 6.275 10.7102H8.55V13.0442C8.55 14.3322 7.531 15.3772 6.275 15.3772C5.019 15.3772 4 14.3322 4 13.0442Z" fill="#0ACF83"/>
<path d="M8.55005 1.37721V6.04421H10.825C12.082 6.04421 13.1 4.99921 13.1 3.71021C13.1 2.42221 12.082 1.37721 10.825 1.37721H8.55005Z" fill="#FF7262"/>
<path d="M4 3.71021C4 4.99921 5.019 6.04421 6.275 6.04421H8.55V1.37721H6.275C5.019 1.37721 4 2.42221 4 3.71021Z" fill="#F24E1E"/>
<path d="M4 8.37721C4 9.66621 5.019 10.7102 6.275 10.7102H8.55V6.04421H6.275C5.019 6.04421 4 7.08721 4 8.37721Z" fill="#A259FF"/>
</svg>
