<svg width="26" height="25" viewBox="0 0 26 25" fill="none" xmlns="http://www.w3.org/2000/svg">
<path d="M0.775879 12.5256C0.775879 5.71806 6.29445 0.199493 13.102 0.199493C19.9095 0.199493 25.428 5.71806 25.428 12.5256C25.428 19.3331 19.9095 24.8516 13.102 24.8516C6.29445 24.8516 0.775879 19.3331 0.775879 12.5256Z" fill="#171717"/>
<path d="M14.8004 14.1782C15.1555 13.8203 15.7334 13.8173 16.0914 14.1723C16.4494 14.5274 16.4514 15.1063 16.0963 15.4643L14.3072 17.268L14.2379 17.3315C13.8805 17.6252 13.3518 17.6057 13.0162 17.2729C12.6807 16.9401 12.6572 16.412 12.9479 16.0522L13.0104 15.9819L14.8004 14.1782ZM10.2809 12.4418C10.6374 12.0857 11.2154 12.0856 11.5719 12.4418C11.9284 12.7984 11.9284 13.3773 11.5719 13.7338L8.03477 17.2709L7.96543 17.3334C7.60692 17.6256 7.07796 17.6049 6.74375 17.2709C6.40957 16.9367 6.38902 16.4079 6.68125 16.0493L6.74375 15.9789L10.2809 12.4418ZM16.8961 11.9799C17.2527 11.6234 17.8315 11.6234 18.1881 11.9799C18.5443 12.3364 18.5443 12.9145 18.1881 13.2709L18.1529 13.3051L18.0836 13.3686C17.725 13.6607 17.1961 13.6393 16.8619 13.3051C16.5279 12.971 16.5074 12.443 16.7994 12.0844L16.8619 12.0141L16.8961 11.9799ZM13.8922 8.95257C14.2527 8.60029 14.8307 8.6069 15.1832 8.96722C15.5356 9.32768 15.5289 9.90568 15.1686 10.2582L13.8219 11.5766L13.7516 11.6381C13.3898 11.9264 12.8614 11.8996 12.5309 11.5619C12.2004 11.2242 12.185 10.6957 12.4811 10.3403L12.5445 10.2709L13.8922 8.95257ZM15.9967 6.7182C16.3533 6.36175 16.9312 6.36168 17.2877 6.7182C17.6442 7.07473 17.6442 7.65264 17.2877 8.00921L17.2516 8.04535L17.1822 8.10785C16.8236 8.40017 16.2948 8.37957 15.9606 8.04535C15.6263 7.71113 15.6057 7.18228 15.8981 6.82367L15.9606 6.75433L15.9967 6.7182Z" fill="#FAFAFA"/>
</svg>
