<svg width="32" height="32" viewBox="0 0 32 32" fill="none" xmlns="http://www.w3.org/2000/svg">
  <!-- 文件主体 -->
  <path d="M3.55566 26.8889C3.55566 28.6071 4.94856 30 6.66678 30H25.3334C27.0517 30 28.4446 28.6071 28.4446 26.8889V9.77778L20.6668 2H6.66678C4.94856 2 3.55566 3.39289 3.55566 5.11111V26.8889Z" fill="#16A34A"/>
  
  <!-- 折角 -->
  <path d="M20.667 6.66647C20.667 8.38469 22.0599 9.77759 23.7781 9.77759H28.4448L20.667 1.99981V6.66647Z" fill="#4ADE80"/>
  
  <!-- XLS文字 -->
  <g opacity="0.9">
    <!-- X -->
    <path fill-rule="evenodd" clip-rule="evenodd" d="M7 23L9.5 19L7.2 15H8.8L10.3 17.8L11.8 15H13.4L11.1 19L13.6 23H12L10.3 20.2L8.6 23H7Z" fill="white"/>
    
    <!-- L -->
    <path fill-rule="evenodd" clip-rule="evenodd" d="M15 23V15H16.2V21.8H19V23H15Z" fill="white"/>
    
    <!-- S -->
    <path fill-rule="evenodd" clip-rule="evenodd" d="M22.5 23C21.1 23 20 21.9 20 20.5H21.2C21.2 21.3 21.8 21.8 22.5 21.8C23.2 21.8 23.8 21.3 23.8 20.5C23.8 19.7 23.2 19.2 22.5 19.2C21.1 19.2 20 18.1 20 16.7C20 15.3 21.1 15 22.5 15C23.9 15 25 16.1 25 17.5H23.8C23.8 16.7 23.2 16.2 22.5 16.2C21.8 16.2 21.2 16.7 21.2 17.5C21.2 18.3 21.8 18.8 22.5 18.8C23.9 18.8 25 19.9 25 21.3C25 22.7 23.9 23 22.5 23Z" fill="white"/>
  </g>
</svg>