<svg xmlns="http://www.w3.org/2000/svg" width="16" height="16" viewBox="0 0 16 16" fill="none"><g clip-path="url(#clip0_2239_27201)"><path d="M1.35704 12.9842L2.04726 14.1763C2.19068 14.4273 2.39683 14.6245 2.63887 14.768C3.3321 13.888 3.81466 13.2127 4.08655 12.7421C4.36248 12.2646 4.70159 11.5176 5.10391 10.5012C4.01961 10.3585 3.19795 10.2871 2.63893 10.2871C2.10236 10.2871 1.28066 10.3585 0.173828 10.5012C0.173828 10.7791 0.24554 11.0569 0.388963 11.3079L1.35704 12.9842Z" fill="#0066DA"></path><path d="M13.3603 14.768C13.6024 14.6245 13.8086 14.4273 13.952 14.1764L14.2388 13.6834L15.6103 11.3079C15.7511 11.0624 15.8252 10.7843 15.8254 10.5012C14.7121 10.3585 13.8919 10.2871 13.3649 10.2871C12.7984 10.2871 11.9782 10.3585 10.9043 10.5012C11.3018 11.5232 11.6365 12.2702 11.9083 12.7421C12.1823 13.2183 12.6663 13.8936 13.3603 14.768Z" fill="#EA4335"></path><path d="M8.0002 5.48189C8.80229 4.51318 9.35506 3.76621 9.65849 3.24098C9.90287 2.81804 10.1718 2.14276 10.4652 1.21514C10.2232 1.07171 9.94534 1 9.65849 1H6.3419C6.05505 1 5.77725 1.0807 5.53516 1.21514C5.90849 2.27901 6.22525 3.03615 6.48544 3.48656C6.77303 3.98432 7.27794 4.64944 8.0002 5.48189Z" fill="#00832D"></path><path d="M10.8952 10.502H5.10463L2.63965 14.7687C2.88162 14.9121 3.15948 14.9838 3.44633 14.9838H12.5535C12.8404 14.9838 13.1183 14.9031 13.3603 14.7687L10.8952 10.502Z" fill="#2684FC"></path><path d="M7.99922 5.48154L5.53424 1.21484C5.29214 1.35827 5.08599 1.55543 4.94257 1.80645L0.388964 9.69456C0.248184 9.94014 0.174023 10.2182 0.173828 10.5013H5.10391L7.99922 5.48154Z" fill="#00AC47"></path><path d="M13.3335 5.75054L11.0566 1.80645C10.9132 1.55543 10.707 1.35827 10.465 1.21484L8 5.4816L10.8952 10.5014H15.8164C15.8164 10.2234 15.7447 9.94565 15.6013 9.69463L13.3335 5.75054Z" fill="#FFBA00"></path></g><defs><clipPath id="clip0_2239_27201"><rect width="15.6516" height="14" fill="white" transform="translate(0.173828 1)"></rect></clipPath></defs></svg>