<svg t="1750390603196" class="icon" viewBox="0 0 1024 1024" version="1.1" xmlns="http://www.w3.org/2000/svg" p-id="6679" width="200" height="200"><path d="M139.219272 0.000408a48.854164 48.854164 0 0 0-35.697197 15.298799A53.953763 53.953763 0 0 0 88.223276 50.996404v917.927921a48.956156 48.956156 0 0 0 15.298799 35.697197 50.384044 50.384044 0 0 0 35.697197 15.298798H887.126544a48.956156 48.956156 0 0 0 35.697197-15.298798 50.384044 50.384044 0 0 0 15.298798-35.697197V288.943719L649.179228 0.000408z m0 0" fill="#F9AE3B" p-id="6680"></path><path d="M938.122539 288.943719H700.175224a52.321892 52.321892 0 0 1-50.995996-50.995995V0.000408z m0 0" fill="#FCD7A7" p-id="6681"></path><path d="M774.935353 715.67821L668.659699 550.757161a16.624695 16.624695 0 0 0-14.380871-7.6494 18.766526 18.766526 0 0 0-14.482863 7.6494l-56.911531 88.427056-127.489989-206.533782a16.828679 16.828679 0 0 0-14.482863-7.6494 19.072502 19.072502 0 0 0-14.482863 7.6494L251.410462 715.67821a15.094815 15.094815 0 0 0 0 16.930671 15.604775 15.604775 0 0 0 14.380871 8.567327h494.661158a18.868518 18.868518 0 0 0 15.298798-8.567327 17.032663 17.032663 0 0 0-0.815936-16.930671z m0 0M630.412702 403.684709a42.53066 42.53066 0 1 0 42.53066-42.428668 42.53066 42.53066 0 0 0-42.53066 42.428668z m0 0" fill="#FFFFFF" p-id="6682"></path></svg>