<svg width="32" height="32" viewBox="0 0 32 32" fill="none" xmlns="http://www.w3.org/2000/svg">
  <!-- 文件主体 -->
  <path d="M3.55566 26.8889C3.55566 28.6071 4.94856 30 6.66678 30H25.3334C27.0517 30 28.4446 28.6071 28.4446 26.8889V9.77778L20.6668 2H6.66678C4.94856 2 3.55566 3.39289 3.55566 5.11111V26.8889Z" fill="#DC2626"/>
  
  <!-- 折角 -->
  <path d="M20.667 6.66647C20.667 8.38469 22.0599 9.77759 23.7781 9.77759H28.4448L20.667 1.99981V6.66647Z" fill="#F87171"/>
  
  <!-- PDF文字 -->
  <g opacity="0.9">
    <!-- P -->
    <path fill-rule="evenodd" clip-rule="evenodd" d="M6 23V15H8.5C9.9 15 11 16.1 11 17.5C11 18.9 9.9 20 8.5 20H7.2V23H6ZM7.2 16.2V18.8H8.5C9.2 18.8 9.8 18.3 9.8 17.5C9.8 16.7 9.2 16.2 8.5 16.2H7.2Z" fill="white"/>
    
    <!-- D -->
    <path fill-rule="evenodd" clip-rule="evenodd" d="M13 23V15H15.5C17.4 15 19 16.6 19 18.5V19.5C19 21.4 17.4 23 15.5 23H13ZM14.2 16.2V21.8H15.5C16.7 21.8 17.8 20.9 17.8 19.5V18.5C17.8 17.1 16.7 16.2 15.5 16.2H14.2Z" fill="white"/>
    
    <!-- F -->
    <path fill-rule="evenodd" clip-rule="evenodd" d="M21 23V15H25V16.2H22.2V18.5H24.2V19.7H22.2V23H21Z" fill="white"/>
  </g>
</svg>