<svg width="32" height="32" viewBox="0 0 32 32" fill="none" xmlns="http://www.w3.org/2000/svg"><path d="M3.55566 26.8889C3.55566 28.6071 4.94856 30 6.66678 30H25.3334C27.0517 30 28.4446 28.6071 28.4446 26.8889V9.77778L20.6668 2H6.66678C4.94856 2 3.55566 3.39289 3.55566 5.11111V26.8889Z" fill="#F35F4F"></path><path d="M20.667 6.66647C20.667 8.38469 22.0599 9.77759 23.7781 9.77759H28.4448L20.667 1.99981V6.66647Z" fill="#FD8C80"></path><g opacity="0.9"><path fill-rule="evenodd" clip-rule="evenodd" d="M14.1811 24.3398V20.3133H16.4864C18.8419 20.3133 20.3829 18.7712 20.3829 16.4974C20.3829 14.2332 18.8438 12.6731 16.4946 12.6731H12.4496H11.9829V24.3398H12.4496H13.7145H14.1811ZM14.1805 18.4546H15.538C17.3974 18.4546 18.1508 17.9515 18.1508 16.4971C18.1508 15.2509 17.4462 14.5479 16.2114 14.5479H14.1805V18.4546Z" fill="white"></path><path d="M14.1811 20.3133V20.255H14.1228V20.3133H14.1811ZM14.1811 24.3398V24.3981H14.2395V24.3398H14.1811ZM11.9829 12.6731V12.6148H11.9246V12.6731H11.9829ZM11.9829 24.3398H11.9246V24.3981H11.9829V24.3398ZM14.1805 18.4546H14.1221V18.5129H14.1805V18.4546ZM14.1805 14.5479V14.4896H14.1221V14.5479H14.1805ZM14.1228 20.3133V24.3398H14.2395V20.3133H14.1228ZM16.4864 20.255H14.1811V20.3717H16.4864V20.255ZM20.3246 16.4974C20.3246 17.6207 19.9442 18.5591 19.277 19.2165C18.6098 19.8739 17.6511 20.255 16.4864 20.255V20.3717C17.6771 20.3717 18.6667 19.9816 19.3589 19.2996C20.0511 18.6175 20.4412 17.6478 20.4412 16.4974H20.3246ZM16.4946 12.7314C17.656 12.7314 18.6126 13.1168 19.2786 13.7776C19.9447 14.4383 20.3246 15.3788 20.3246 16.4974H20.4412C20.4412 15.3517 20.0516 14.3801 19.3608 13.6947C18.67 13.0094 17.6824 12.6148 16.4946 12.6148V12.7314ZM12.4496 12.7314H16.4946V12.6148H12.4496V12.7314ZM11.9829 12.7314H12.4496V12.6148H11.9829V12.7314ZM12.0412 24.3398V12.6731H11.9246V24.3398H12.0412ZM12.4496 24.2814H11.9829V24.3981H12.4496V24.2814ZM13.7145 24.2814H12.4496V24.3981H13.7145V24.2814ZM14.1811 24.2814H13.7145V24.3981H14.1811V24.2814ZM15.538 18.3963H14.1805V18.5129H15.538V18.3963ZM18.0924 16.4971C18.0924 17.2145 17.9071 17.6819 17.5072 17.9741C17.1024 18.2701 16.4656 18.3963 15.538 18.3963V18.5129C16.4698 18.5129 17.1394 18.3876 17.5761 18.0683C18.0178 17.7454 18.2091 17.2341 18.2091 16.4971H18.0924ZM16.2114 14.6063C16.8179 14.6063 17.2861 14.7787 17.6028 15.0964C17.9195 15.4141 18.0924 15.8848 18.0924 16.4971H18.2091C18.2091 15.8632 18.0297 15.3593 17.6854 15.014C17.3411 14.6686 16.8397 14.4896 16.2114 14.4896V14.6063ZM14.1805 14.6063H16.2114V14.4896H14.1805V14.6063ZM14.2388 18.4546V14.5479H14.1221V18.4546H14.2388Z" fill="#F35F4F"></path></g></svg>