<svg width="32" height="32" viewBox="0 0 32 32" fill="none" xmlns="http://www.w3.org/2000/svg">
  <!-- 文件主体 -->
  <path d="M3.55566 26.8889C3.55566 28.6071 4.94856 30 6.66678 30H25.3334C27.0517 30 28.4446 28.6071 28.4446 26.8889V9.77778L20.6668 2H6.66678C4.94856 2 3.55566 3.39289 3.55566 5.11111V26.8889Z" fill="#14A9DA"/>
  
  <!-- 折角 -->
  <path d="M20.667 6.66647C20.667 8.38469 22.0599 9.77759 23.7781 9.77759H28.4448L20.667 1.99981V6.66647Z" fill="#7CBDFF"/>
  
  <!-- DOC文字 -->
  <g opacity="0.9">
    <!-- D -->
    <path fill-rule="evenodd" clip-rule="evenodd" d="M6 23V15H9C11.2 15 13 16.8 13 19C13 21.2 11.2 23 9 23H6ZM7.3 16.2V21.8H9C10.4 21.8 11.7 20.6 11.7 19C11.7 17.4 10.4 16.2 9 16.2H7.3Z" fill="white"/>
    
    <!-- O -->
    <path fill-rule="evenodd" clip-rule="evenodd" d="M16 23C14.3 23 13 21.7 13 20V18C13 16.3 14.3 15 16 15C17.7 15 19 16.3 19 18V20C19 21.7 17.7 23 16 23ZM16 16.2C15.0 16.2 14.3 16.9 14.3 18V20C14.3 21.1 15.0 21.8 16 21.8C17.0 21.8 17.7 21.1 17.7 20V18C17.7 16.9 17.0 16.2 16 16.2Z" fill="white"/>
    
    <!-- C -->
    <path fill-rule="evenodd" clip-rule="evenodd" d="M22 23C20.3 23 19 21.7 19 20V18C19 16.3 20.3 15 22 15C23.2 15 24.2 15.7 24.6 16.8H23.3C23.0 16.4 22.5 16.2 22 16.2C21.0 16.2 20.3 16.9 20.3 18V20C20.3 21.1 21.0 21.8 22 21.8C22.5 21.8 23.0 21.6 23.3 21.2H24.6C24.2 22.3 23.2 23 22 23Z" fill="white"/>
  </g>
</svg>