<svg xmlns="http://www.w3.org/2000/svg" width="16" height="16" viewBox="0 0 20 20" fill="none"><path d="M13.4154 18.3346H14.9987C15.4407 18.3346 15.8646 18.159 16.1772 17.8465C16.4898 17.5339 16.6654 17.11 16.6654 16.668V5.83464L12.4987 1.66797H4.9987C4.55667 1.66797 4.13275 1.84356 3.82019 2.15612C3.50763 2.46868 3.33203 2.89261 3.33203 3.33464V10.2513" stroke="currentColor" stroke-width="1.66667" stroke-linecap="round" stroke-linejoin="round"></path><path d="M11.5052 17.332C11.1161 17.332 10.8906 17.092 10.8906 16.6848V13.0193C10.8906 12.5757 11.1343 12.332 11.5852 12.332H13.807C14.0834 12.332 14.2834 12.5357 14.2834 12.8193C14.2834 13.0993 14.0834 13.2957 13.807 13.2957H12.0943V14.4884H13.6215C13.9088 14.4884 14.0979 14.6775 14.0979 14.9575C14.0979 15.2375 13.9052 15.4266 13.6215 15.4266H12.0943V16.6848C12.0943 17.0993 11.8834 17.332 11.5052 17.332Z" fill="currentColor"></path><path d="M5.76562 16.6084V13.0193C5.76562 12.572 6.0129 12.332 6.46744 12.332H7.71472C9.17653 12.332 9.95835 13.1975 9.95835 14.812C9.95835 16.4302 9.17653 17.2957 7.71472 17.2957H6.46744C6.0129 17.2957 5.76562 17.0557 5.76562 16.6084ZM6.96926 16.3393H7.52926C8.35472 16.3393 8.72926 15.8666 8.72926 14.812C8.72926 13.7611 8.35472 13.2848 7.52926 13.2848H6.96926V16.3393Z" fill="currentColor"></path><path d="M1.59636 17.332C1.21455 17.332 1 17.0993 1 16.6848V13.1538C1 12.5611 1.21818 12.332 1.78545 12.332H3.06182C4.14909 12.332 4.83636 12.9938 4.83636 14.0157C4.83636 15.1029 4.13818 15.7102 3 15.7102H2.2V16.6848C2.2 17.0957 1.98182 17.332 1.59636 17.332ZM2.20364 14.8157H2.74909C3.37091 14.8157 3.64727 14.612 3.64727 14.0375C3.64727 13.5429 3.37455 13.2593 2.88364 13.2593H2.20364V14.8157Z" fill="currentColor"></path><path d="M11.668 1.66797V5.0013C11.668 5.44333 11.8436 5.86725 12.1561 6.17981C12.4687 6.49237 12.8926 6.66797 13.3346 6.66797H16.668" stroke="currentColor" stroke-width="1.66667" stroke-linecap="round" stroke-linejoin="round"></path></svg>