<svg width="1920" height="1080" viewBox="0 0 1920 1080" fill="none" xmlns="http://www.w3.org/2000/svg">
<g clip-path="url(#clip0_63_2)">
<path d="M189.105 478.755C189.105 478.755 230.905 501.964 286.375 478.755C341.844 455.545 419.721 478.755 446.195 478.755C472.668 478.755 465.834 450.189 465.834 450.189C465.834 450.189 465.834 407.341 446.195 407.341C426.555 407.341 421.2 419.251 421.2 437.692C421.2 456.132 473.652 510.918 465.834 526.959C458.016 542.999 411.596 482.969 421.2 510.891C430.804 538.813 465.834 605.514 465.834 605.514C465.834 605.514 464.048 605.514 485.472 605.514C506.897 605.514 485.472 493.81 506.897 478.755C528.321 463.7 564.028 478.755 564.028 478.755C564.028 478.755 608.661 407.341 551.53 407.341C494.399 407.341 517.609 450.189 517.609 450.189C517.609 450.189 599.178 493.037 608.661 501.964C618.144 510.891 601.399 516.835 608.661 526.959M608.661 526.959C644.309 551.954 624.424 615.214 608.661 618.012C592.899 620.809 572.954 605.514 572.954 605.514H528.321C528.321 605.514 555.101 585.875 581.881 585.875C608.661 585.875 608.661 526.959 608.661 526.959ZM608.661 526.959L672.934 510.891M672.934 510.891C672.934 510.891 717.134 503.901 715.782 450.189C714.43 396.477 620.048 389.487 630.085 450.189C640.122 510.891 672.934 510.891 672.934 510.891ZM672.934 510.891C672.934 510.891 743.421 518.032 763.986 551.954C784.552 585.875 788.981 668.001 788.981 668.001C788.981 668.001 894.724 656.058 916.545 686.369C938.365 716.679 942.528 782.028 963.905 780.141C985.281 778.254 979.06 747.995 983.796 730.887C988.531 713.778 956.327 686.369 956.327 686.369C956.327 686.369 1011.26 724.256 995.162 686.369C979.06 648.481 867.332 520.323 851.188 488.405C835.045 456.486 862.778 437.692 901.39 444.834C940.001 451.976 943.394 476.969 933.594 501.964C923.794 526.959 862.873 513.979 834.139 542.395C805.405 570.811 788.673 658.764 811.406 678.791C834.139 698.818 891.735 681.136 901.39 709.101C911.045 737.067 932.647 818.996 963.905 819.923C995.162 820.85 998.004 705.313 1026.42 692.052C1054.84 678.791 1082.68 675.741 1098.41 686.369C1114.13 696.997 1163.28 794.257 1198.81 794.349C1234.34 794.44 1227.22 668.001 1198.81 660.794C1170.39 653.587 1177.02 618.012 1154.29 592.596C1131.56 567.181 1092.72 573.899 1073.78 542.395C1054.84 510.891 1084.08 444.834 1105.98 427.784C1127.89 410.735 1144.77 466.9 1147.66 496.929C1150.56 526.959 1119.35 570.811 1098.41 570.811C1077.46 570.811 1073.78 557.55 1054.84 563.233C1035.89 568.916 1048.56 618.012 1026.42 618.012C1004.28 618.012 956.327 585.875 947.802 551.954C939.277 518.032 962.957 498.055 979.06 488.405C995.162 478.755 1026.42 496.929 1038.73 488.405C1051.05 479.88 1038.73 413.576 1011.26 413.576C983.796 413.576 963.905 433.646 963.905 456.2C963.905 478.755 1054.84 517.591 1054.84 535.764C1054.84 553.938 1011.26 618.012 1026.42 648.481C1041.57 678.95 1093.67 716.679 1093.67 716.679C1093.67 716.679 1140.54 809.922 1177.02 808.557C1213.51 807.192 1298.09 730.887 1292.58 709.101C1287.08 687.316 1259.43 702.461 1241.43 686.369C1223.44 670.276 1219.65 648.481 1219.65 636.167C1219.65 623.854 1240.81 623.854 1259.43 636.167C1278.05 648.481 1269.85 678.791 1292.58 678.791C1315.31 678.791 1310.58 609.646 1286.9 592.596C1263.22 575.547 1241.43 609.646 1219.65 605.514C1197.86 601.382 1176.5 600.94 1169.45 585.875C1162.39 570.811 1177.19 542.395 1190.28 542.395C1203.38 542.395 1177.02 520.609 1177.02 488.405C1177.02 456.2 1213.02 456.2 1227.22 456.2C1241.43 456.2 1250.73 501.964 1246.17 510.891C1241.61 519.817 1221.02 532.836 1227.22 542.395C1233.43 551.954 1257.93 551.867 1268.9 557.55C1279.87 563.233 1302.49 586.913 1315.31 592.596C1328.14 598.279 1348.4 586.913 1367.41 598.279C1386.42 609.646 1378.78 668.001 1390.14 668.001C1401.51 668.001 1401.51 625.748 1401.51 598.279C1401.51 570.811 1338.99 478.755 1338.99 478.755C1338.99 478.755 1318.52 461.807 1310.58 437.692C1302.64 413.576 1330.25 397.079 1344.68 402.21C1359.1 407.341 1367.41 424.896 1367.41 444.834C1367.41 464.771 1305.37 469.325 1286.9 478.755C1268.42 488.184 1249.96 511.523 1259.43 526.959C1268.9 542.395 1308.68 570.811 1323.84 570.811C1338.99 570.811 1347.09 576.413 1354.15 585.875C1361.2 595.338 1361.73 675.741 1381.62 686.369C1401.51 696.997 1408.14 678.791 1423.29 678.791C1438.45 678.791 1459.18 608.407 1446.03 592.596C1432.87 576.786 1388.65 551.954 1381.62 526.959C1374.58 501.964 1423.19 505.454 1428.03 496.929C1432.87 488.405 1416.48 450.189 1401.51 450.189C1386.54 450.189 1390.14 464.725 1390.14 478.755C1390.14 492.784 1471.12 542.395 1453.6 557.55C1436.09 572.705 1446.03 551.954 1438.45 563.233C1430.87 574.513 1453.62 623.854 1480.13 636.167C1506.63 648.481 1497.34 623.854 1527.49 636.167C1557.63 648.481 1555.92 643.745 1578.63 648.481C1601.35 653.217 1603.26 625.748 1629.78 625.748C1656.3 625.748 1700.82 641.851 1700.82 641.851C1700.82 641.851 1707.45 660.794 1681.88 660.794C1656.3 660.794 1672.41 570.811 1672.41 570.811V478.755C1672.41 478.755 1663.27 427.784 1681.88 418.312C1700.48 408.841 1723.55 370.97 1729.24 338.748C1734.92 306.526 1681.88 301.758 1672.41 324.54C1662.93 347.322 1656.3 374.613 1686.61 390.844C1716.92 407.075 1717.87 408.84 1740.6 413.576C1763.34 418.312 1777.36 433.467 1781.33 444.834C1785.3 456.2 1777.55 455.923 1755.76 464.725C1733.97 473.527 1729.24 450.189 1723.55 444.834C1717.87 439.479 1740.6 427.784 1740.6 437.692C1740.6 447.599 1763.34 433.209 1763.34 450.189C1763.34 467.169 1738.71 476.969 1747.23 501.964C1755.76 526.959 1740.6 592.596 1740.6 609.646C1740.6 626.696 1770.91 645.64 1763.34 653.217C1755.76 660.794 1747.23 660.794 1733.97 660.794C1720.71 660.794 1723.55 654.323 1723.55 636.167C1723.55 618.012 1714.08 542.395 1714.08 542.395L1692.3 625.748C1692.3 625.748 1666.64 614.663 1656.3 570.811C1645.97 526.959 1739.99 456.483 1769.02 464.725C1798.05 472.967 1827.2 444.834 1924.36 464.725" stroke="white" stroke-width="3"/>
</g>
<defs>
<clipPath id="clip0_63_2">
<rect width="1920" height="1080" fill="white"/>
</clipPath>
</defs>
</svg>
