<svg width="1920" height="1080" viewBox="0 0 1920 1080" fill="none" xmlns="http://www.w3.org/2000/svg">
<g clip-path="url(#clip0_63_30)">
<path d="M-1.39697 472.069C128.493 496.541 223.442 737.237 372.12 737.237C520.799 737.237 462.331 700.573 462.478 693.941C462.624 687.309 391.178 677.5 406.004 693.941C420.831 710.383 661.653 746.737 684.606 737.237C707.559 727.737 668.157 693.941 637.545 693.941C606.933 693.941 476.898 742.43 477.537 684.529C478.176 626.628 594.249 639.35 594.249 639.35C594.249 639.35 540.804 622.855 530.245 618.644C519.687 614.432 482.991 556.896 500.126 520.757C520.387 478.028 612.128 488.933 618.72 496.285C625.313 503.637 618.72 571.583 618.72 571.583C618.72 571.583 603.431 560.288 594.249 560.288C585.066 560.288 609.467 618.644 594.249 596.055C579.03 573.466 560.736 611.117 571.659 618.644C582.583 626.17 596.768 623.61 606.449 623.61C616.13 623.61 625.313 605.501 627.577 576.828C629.84 548.155 619.741 525.8 594.249 516.464C564.221 505.468 525.392 520.452 519.676 537.592C509.107 569.283 558.158 654.546 584.568 653.792C610.977 653.037 642.984 649.86 663.795 671.901C684.606 693.941 678.132 744.337 678.132 744.337L487.231 751.883C487.231 751.883 649.459 751.883 678.132 822.056" stroke="white" stroke-width="3"/>
<path d="M678.457 820.637C678.457 820.637 724.204 724.642 764.702 724.642C805.2 724.642 738.826 615.982 727.954 614.398C717.083 612.814 714.455 625.647 715.205 636.147C715.955 646.646 723.455 646.646 734.704 646.646C745.953 646.646 731.704 594.899 742.954 573.15C754.203 551.401 835.948 543.902 849.448 564.151C862.947 584.399 849.448 646.646 849.448 646.646C849.448 646.646 858.447 662.395 868.947 651.896C879.446 641.396 868.947 620.398 861.447 620.398C853.947 620.398 849.448 699.893 836.698 695.394C823.949 690.894 782.701 681.144 785.701 695.394C788.701 709.643 823.949 699.893 836.698 708.143C849.448 716.392 845.958 734.026 832.199 728.392C818.439 722.758 791.701 724.642 795.451 735.141C799.2 745.641 900.445 732.141 932.693 747.891C964.941 763.64 964.941 887.383 964.941 887.383C964.941 887.383 981.44 816.887 978.441 792.888C975.441 768.889 958.942 707.393 964.941 684.894C970.941 662.395 1025.74 636.147 1041.44 636.147C1057.14 636.147 1090.18 651.896 1093.18 636.147C1096.18 620.397 1045.41 632.83 1041.44 624.147C1037.47 615.464 1039.26 577.174 1017.44 573.15C1017.44 573.15 1007.69 592.649 1017.44 604.648C1027.19 616.648 1008.44 546.902 1041.44 525.153C1074.44 503.404 1108.18 514.653 1103.68 564.151C1099.18 613.648 1111.93 590.62 1111.93 574.958C1111.93 559.296 1091.88 585.103 1095.43 604.648C1098.98 624.194 1067.03 612.746 1068.44 620.398C1069.84 628.05 1087.34 621.368 1103.68 631.766C1120.03 642.164 1166.95 667.271 1171.93 708.143C1176.91 749.015 1107.1 751.468 1108.18 792.888C1109.27 834.308 1167.71 842.766 1155.03 865.084C1142.35 887.401 1106.08 914.537 1097.97 848.092C1089.85 781.647 1209.57 741.05 1209.57 741.05" stroke="white" stroke-width="3"/>
<path d="M1210.05 740.529C1232.17 733.742 1295.85 755.975 1295.85 743.388C1295.85 730.802 1211.51 730.559 1204.21 701.586C1196.91 672.613 1177.7 638.797 1167.53 642.098C1157.37 645.398 1170.3 672.358 1181.9 673.629C1193.49 674.9 1172.05 607.828 1204.21 584.217C1236.36 560.605 1274.44 563.289 1285.15 584.217C1295.85 605.144 1294.25 670.068 1305.41 668.828C1316.58 667.587 1313.54 638.227 1305.41 632.851C1297.28 627.475 1290.21 693.226 1281.01 701.586C1271.81 709.946 1226.26 691.572 1226.26 705.218C1226.26 718.864 1267.78 713.902 1285.15 715.556C1302.52 717.21 1309.13 728.25 1315.75 735.819C1322.37 743.389 1392.67 757.323 1400.36 799.661C1408.05 842 1362.89 833.412 1360.41 812.735C1357.93 792.059 1404.66 716.797 1397.21 694.053C1389.77 671.309 1343.46 699.107 1331.05 673.629C1318.64 648.151 1312.85 574.875 1331.05 569.747C1349.24 564.619 1457 586.275 1469.49 558.492C1481.99 530.709 1475.44 433.084 1443.77 413.79M1443.77 413.79C1412.1 394.497 1415.91 331.3 1396.31 318.289C1376.71 305.278 1334.16 298.457 1334.16 322.632M1443.77 413.79C1412.1 394.497 1419.96 324.077 1400.36 311.066C1380.76 298.055 1328.48 297.239 1334.16 322.632M1334.16 322.632C1334.16 346.808 1386.88 325.017 1386.88 344.208C1386.88 363.399 1400.36 370.674 1400.36 383.242C1400.36 395.81 1368.68 403.343 1371.42 413.79C1374.16 424.238 1400.36 404.997 1425.75 425.045C1451.14 445.093 1452.21 529.469 1428.64 549.732C1405.07 569.995 1350.83 551.386 1345.69 545.596C1340.56 539.807 1376.69 530.005 1374.06 523.12C1371.42 516.236 1326.4 541.048 1303.76 529.055C1281.11 517.063 1326.4 523.12 1326.4 523.12C1326.4 523.12 1314.09 513.755 1318.64 510.86C1323.19 507.965 1339.73 519.958 1349.66 517.89C1359.58 515.822 1407.55 495.146 1407.97 482.74C1408.38 470.334 1359.17 517.89 1336.05 499.004C1312.92 480.117 1367.44 444.338 1355.34 436.299C1343.24 428.26 1309.55 460.41 1295.9 456.274C1282.25 452.139 1245.86 413.79 1245.86 413.79M1245.86 413.79C1245.86 413.79 1204.21 391.35 1186.52 394.497C1168.84 397.643 1217.33 417.816 1217.33 417.816L1196.24 425.849C1196.24 425.849 1228.65 440.974 1241.19 443.041C1253.72 445.109 1245.86 413.79 1245.86 413.79ZM1247.55 422.594C1247.55 422.594 1225.6 421.124 1226.26 432.056C1226.92 442.987 1279.73 499.004 1287.81 499.004C1295.9 499.004 1296.73 477.778 1309.13 482.74C1321.54 487.702 1339.26 504.929 1313.54 499.004C1287.81 493.078 1303.76 552.213 1287.81 558.492C1271.87 564.771 1257.44 540.634 1217.33 535.983C1177.22 531.332 1167.53 584.217 1140.31 569.747C1113.09 555.276 1180.05 314.21 1160.31 297.043C1140.57 279.877 751.867 279.877 730.036 297.043C708.204 314.21 703.827 535.983 730.036 535.983C756.244 535.983 955.998 549.732 990.234 535.983" stroke="white" stroke-width="3"/>
<path d="M1348.85 335.628C1348.85 335.628 1357.3 351.235 1352.67 355.787C1348.04 360.34 1343.64 376.597 1343.84 382.699C1344.03 388.8 1352.67 382.699 1352.67 382.699C1352.67 382.699 1367.14 399.722 1373.28 398.89C1379.41 398.058 1392.3 382.699 1392.3 382.699" stroke="white" stroke-width="3"/>
<path d="M1459.18 568.16C1511.96 570.098 1520.34 455.464 1630.18 511.812C1740.02 568.16 1923.43 568.16 1923.43 568.16" stroke="white" stroke-width="3"/>
</g>
<defs>
<clipPath id="clip0_63_30">
<rect width="1920" height="1080" fill="white"/>
</clipPath>
</defs>
</svg>
