<svg width="1921" height="1080" viewBox="0 0 1921 1080" fill="none" xmlns="http://www.w3.org/2000/svg">
<g clip-path="url(#clip0_74_2)">
<path d="M857.587 696.472C857.587 696.472 711.68 726.684 687.684 718.887C663.689 711.089 633.13 662.761 642.629 653.24C652.128 643.718 696.376 671.496 711.68 677.257C726.984 683.018 798.722 669.606 798.144 680.86C797.566 692.114 618.011 810.556 618.011 810.556C618.011 810.556 585.691 914.78 601.851 919.993C618.011 925.206 745.86 848.314 883.354 880.244C1020.85 912.173 1337.41 819.835 1411.76 819.413C1486.11 818.99 1474.38 618.282 1439.77 605.552C1405.16 592.822 1383.81 719.943 1351.93 741.761C1320.06 763.579 1254.13 741.761 1242.4 741.761C1230.67 741.761 1239.91 810.556 1239.91 810.556C1239.91 810.556 1214.2 755.24 1211.9 741.761C1209.61 728.282 1165.51 708.214 1155.89 704.845C1146.28 701.476 1105.56 704.845 1105.56 710.82C1105.56 716.796 1136.8 718.64 1136.8 724.504C1136.8 730.369 1099.69 724.504 1101 732.324C1102.3 740.143 1136.8 736.234 1136.8 741.761C1136.8 747.289 1101 749.266 1105.56 755.782C1110.12 762.299 1126.62 759.583 1126.62 759.583C1126.62 759.583 1111.42 776.635 1118.59 777.938C1125.76 779.241 1138.46 759.583 1155.89 759.583C1173.33 759.583 1183.18 787.055 1204.27 782.497C1225.36 777.938 1231 599.378 1264.1 618.282C1297.19 637.186 1280.65 658.215 1297.19 653.24C1313.74 648.264 1343.4 581.798 1361.65 581.798C1379.9 581.798 1417.04 590.269 1417.04 581.798C1417.04 573.326 1373.38 566.81 1351.93 565.507C1330.49 564.204 1313.74 613.076 1297.19 618.282C1280.65 623.488 1252.18 595.368 1239.91 595.368C1227.64 595.368 1211.9 605.552 1211.9 595.368C1211.9 585.185 1204.27 557.179 1204.27 557.179C1204.27 557.179 1186.36 562.249 1183.9 557.179C1181.44 552.109 1205.92 530.889 1198.09 517.938C1190.26 504.986 1190.26 473.162 1190.26 473.162M1190.26 473.162C1190.26 473.162 1222.14 468.787 1232.27 473.162C1242.4 477.537 1242.4 497.086 1242.4 497.086C1242.4 497.086 1264.1 510.77 1264.1 522.808C1264.1 534.846 1287.01 497.877 1306.11 504.986C1325.2 512.096 1285.41 532.925 1288.02 540.745C1290.62 548.564 1294.02 568.765 1313.43 565.507C1332.84 562.249 1340.66 527.035 1326.46 463.201C1312.27 399.367 1204.27 437.136 1193.53 441.697C1182.79 446.259 1190.26 473.162 1190.26 473.162ZM1320.29 448.03C1320.29 448.03 1583.86 564.204 1919.44 469.718" stroke="white" stroke-width="3"/>
<path d="M0.0175781 566.775C92.7966 572.96 224.313 503.652 384.843 503.653C545.372 503.653 722.38 456.977 722.38 456.977" stroke="white" stroke-width="3"/>
<path d="M721.374 458.486C721.374 458.486 731.436 443.896 718.284 432.276C705.133 420.656 632.326 427.294 602.643 421.257C572.96 415.219 573.464 515.336 581.513 533.448C589.563 551.559 611.539 501.249 625.283 502.255C639.026 503.262 639.026 526.546 639.026 526.546C639.026 526.546 639.026 540.491 628.818 539.155C618.611 537.819 611.539 496.721 625.283 492.193C639.026 487.666 652.236 522.943 652.236 522.943C652.236 522.943 666.034 502.255 669.048 485.115C672.063 467.975 665.027 464.523 676.096 461.504C687.164 458.486 704.387 458.531 712.881 465.301C721.374 472.07 709.278 526.546 709.278 526.546C709.278 526.546 724.896 545.522 718.284 549.963C711.673 554.405 702.257 549.963 696.723 553.566C691.188 557.169 702.76 580.739 692.466 585.389C682.171 590.04 665.53 593.316 652.236 596.798C638.941 600.28 652.236 625.011 639.026 624.005C625.816 622.999 599.625 557.093 584.029 553.566C568.433 550.039 547.303 558.602 523.154 580.739C499.005 602.875 494.32 665.849 520.138 697.072C545.957 728.295 634.824 794.528 673.852 798.547C712.881 802.567 833.416 762.41 844.902 755.271C856.387 748.132 851.283 727.094 851.283 727.094M851.283 727.094C851.283 727.094 844.498 709.081 856.387 697.072C868.276 685.063 893.659 623.133 902.021 627.188C910.383 631.242 902.021 665.849 902.021 665.849C902.021 665.849 952.677 647.041 957.262 650.838C961.847 654.635 925.666 671.253 930.842 675.456C936.018 679.659 960.803 656.242 965.068 661.045C969.332 665.849 935.959 683.33 939.702 686.137C943.445 688.944 981.406 667.05 984.882 671.253C988.359 675.456 942.509 693.935 946.454 697.072C950.399 700.209 965.068 692.687 965.068 699.549C965.068 706.411 922.859 722.318 906.224 728.295C889.589 734.272 851.283 727.094 851.283 727.094Z" stroke="white" stroke-width="3"/>
</g>
<defs>
<clipPath id="clip0_74_2">
<rect width="1920" height="1080" fill="white" transform="translate(0.40918)"/>
</clipPath>
</defs>
</svg>
