<svg width="1920" height="721" viewBox="0 0 1920 721" fill="none" xmlns="http://www.w3.org/2000/svg">
<g clip-path="url(#clip0_115_2)">
<path d="M189.105 256.284C189.105 256.284 230.905 279.493 286.375 256.284C341.844 233.074 419.721 256.284 446.195 256.284C472.668 256.284 465.834 227.718 465.834 227.718C465.834 227.718 465.834 184.87 446.195 184.87C426.555 184.87 421.2 196.78 421.2 215.221C421.2 233.662 473.652 288.448 465.834 304.488C458.016 320.529 411.596 260.498 421.2 288.42C430.804 316.342 465.834 383.043 465.834 383.043C465.834 383.043 464.048 383.043 485.472 383.043C506.897 383.043 485.472 271.339 506.897 256.284C528.321 241.229 564.028 256.284 564.028 256.284C564.028 256.284 608.661 184.87 551.53 184.87C494.399 184.87 517.609 227.718 517.609 227.718C517.609 227.718 599.178 270.567 608.661 279.493C618.144 288.42 601.399 294.364 608.661 304.488M608.661 304.488C644.309 329.483 624.424 392.743 608.661 395.541C592.899 398.338 572.954 383.043 572.954 383.043H528.321C528.321 383.043 555.101 363.405 581.881 363.405C608.661 363.405 608.661 304.488 608.661 304.488ZM608.661 304.488L672.934 288.42M672.934 288.42C672.934 288.42 717.134 281.431 715.782 227.718C714.43 174.006 620.048 167.017 630.085 227.718C640.122 288.42 672.934 288.42 672.934 288.42ZM672.934 288.42C672.934 288.42 743.421 295.561 763.986 329.483C784.552 363.405 788.981 445.531 788.981 445.531C788.981 445.531 894.724 433.588 916.545 463.898C938.365 494.208 942.528 559.557 963.905 557.67C985.281 555.783 979.06 525.524 983.796 508.416C988.531 491.308 956.327 463.898 956.327 463.898C956.327 463.898 1011.26 501.786 995.162 463.898C979.06 426.01 867.332 297.852 851.188 265.934C835.045 234.016 862.778 215.221 901.39 222.363C940.001 229.505 943.394 254.498 933.594 279.493C923.794 304.488 862.873 291.508 834.139 319.924C805.405 348.34 788.673 436.293 811.406 456.32C834.139 476.347 891.735 458.665 901.39 486.631C911.045 514.596 932.647 596.525 963.905 597.452C995.162 598.379 998.004 482.842 1026.42 469.581C1054.84 456.32 1082.68 453.27 1098.41 463.898C1114.13 474.526 1163.28 571.787 1198.81 571.878C1234.34 571.97 1227.22 445.531 1198.81 438.324C1170.39 431.117 1177.02 395.541 1154.29 370.126C1131.56 344.71 1092.72 351.428 1073.78 319.924C1054.84 288.42 1084.08 222.363 1105.98 205.314C1127.89 188.264 1144.77 244.429 1147.66 274.459C1150.56 304.488 1119.35 348.34 1098.41 348.34C1077.46 348.34 1073.78 335.079 1054.84 340.762C1035.89 346.446 1048.56 395.541 1026.42 395.541C1004.28 395.541 956.327 363.405 947.802 329.483C939.277 295.561 962.957 275.584 979.06 265.934C995.162 256.284 1026.42 274.459 1038.73 265.934C1051.05 257.409 1038.73 191.106 1011.26 191.106C983.796 191.106 963.905 211.175 963.905 233.729C963.905 256.284 1054.84 295.12 1054.84 313.294C1054.84 331.467 1011.26 395.541 1026.42 426.01C1041.57 456.479 1093.67 494.208 1093.67 494.208C1093.67 494.208 1140.54 587.451 1177.02 586.086C1213.51 584.721 1298.09 508.416 1292.58 486.631C1287.08 464.845 1259.43 479.99 1241.43 463.898C1223.44 447.806 1219.65 426.01 1219.65 413.697C1219.65 401.383 1240.81 401.383 1259.43 413.697C1278.05 426.01 1269.85 456.32 1292.58 456.32C1315.31 456.32 1310.58 387.175 1286.9 370.126C1263.22 353.076 1241.43 387.175 1219.65 383.043C1197.86 378.912 1176.5 378.469 1169.45 363.405C1162.39 348.34 1177.19 319.924 1190.28 319.924C1203.38 319.924 1177.02 298.139 1177.02 265.934C1177.02 233.729 1213.02 233.729 1227.22 233.729C1241.43 233.729 1250.73 279.493 1246.17 288.42C1241.61 297.347 1221.02 310.365 1227.22 319.924C1233.43 329.483 1257.93 329.396 1268.9 335.079C1279.87 340.762 1302.49 364.442 1315.31 370.126C1328.14 375.809 1348.4 364.442 1367.41 375.809C1386.42 387.175 1378.78 445.531 1390.14 445.531C1401.51 445.531 1401.51 403.277 1401.51 375.809C1401.51 348.34 1338.99 256.284 1338.99 256.284C1338.99 256.284 1318.52 239.336 1310.58 215.221C1302.64 191.106 1330.25 174.609 1344.68 179.739C1359.1 184.87 1367.41 202.426 1367.41 222.363C1367.41 242.301 1305.37 246.854 1286.9 256.284C1268.42 265.714 1249.96 289.052 1259.43 304.488C1268.9 319.924 1308.68 348.34 1323.84 348.34C1338.99 348.34 1347.09 353.942 1354.15 363.405C1361.2 372.867 1361.73 453.27 1381.62 463.898C1401.51 474.526 1408.14 456.32 1423.29 456.32C1438.45 456.32 1459.18 385.936 1446.03 370.126C1432.87 354.315 1388.65 329.483 1381.62 304.488C1374.58 279.493 1423.19 282.984 1428.03 274.459C1432.87 265.934 1416.48 227.718 1401.51 227.718C1386.54 227.718 1390.14 242.254 1390.14 256.284C1390.14 270.313 1471.12 319.924 1453.6 335.079C1436.09 350.234 1446.03 329.483 1438.45 340.762C1430.87 352.042 1453.62 401.383 1480.13 413.697C1506.63 426.01 1497.34 401.383 1527.49 413.697C1557.63 426.01 1555.92 421.274 1578.63 426.01C1601.35 430.746 1603.26 403.277 1629.78 403.277C1656.3 403.277 1700.82 419.38 1700.82 419.38C1700.82 419.38 1707.45 438.324 1681.88 438.324C1656.3 438.324 1672.41 348.34 1672.41 348.34V256.284C1672.41 256.284 1663.27 205.314 1681.88 195.842C1700.48 186.37 1723.55 148.5 1729.24 116.277C1734.92 84.0551 1681.88 79.2874 1672.41 102.069C1662.93 124.851 1656.3 152.142 1686.61 168.373C1716.92 184.604 1717.87 186.37 1740.6 191.106C1763.34 195.842 1777.36 210.997 1781.33 222.363C1785.3 233.729 1777.55 233.453 1755.76 242.254C1733.97 251.056 1729.24 227.718 1723.55 222.363C1717.87 217.008 1740.6 205.314 1740.6 215.221C1740.6 225.128 1763.34 210.739 1763.34 227.718C1763.34 244.698 1738.71 254.498 1747.23 279.493C1755.76 304.488 1740.6 370.126 1740.6 387.175C1740.6 404.225 1770.91 423.169 1763.34 430.746C1755.76 438.324 1747.23 438.324 1733.97 438.324C1720.71 438.324 1723.55 431.852 1723.55 413.697C1723.55 395.541 1714.08 319.924 1714.08 319.924L1692.3 403.277C1692.3 403.277 1666.64 392.192 1656.3 348.34C1645.97 304.488 1739.99 234.012 1769.02 242.254C1798.05 250.497 1827.2 222.363 1924.36 242.254" stroke="white" stroke-width="3"/>
</g>
<defs>
<clipPath id="clip0_115_2">
<rect width="1920" height="721" fill="white"/>
</clipPath>
</defs>
</svg>
