<svg width="1920" height="721" viewBox="0 0 1920 721" fill="none" xmlns="http://www.w3.org/2000/svg">
<g clip-path="url(#clip0_115_10)">
<path d="M857.178 404.116C857.178 404.116 711.271 434.329 687.275 426.531C663.28 418.733 632.72 370.405 642.219 360.884C651.718 351.362 695.967 379.141 711.271 384.901C726.575 390.662 798.313 377.25 797.735 388.504C797.157 399.758 617.602 518.2 617.602 518.2C617.602 518.2 585.282 622.424 601.442 627.637C617.602 632.85 745.451 555.958 882.945 587.888C1020.44 619.818 1337.01 527.479 1411.35 527.057C1485.7 526.635 1473.97 325.926 1439.36 313.196C1404.75 300.466 1383.4 427.587 1351.52 449.405C1319.65 471.223 1253.72 449.405 1241.99 449.405C1230.26 449.405 1239.5 518.2 1239.5 518.2C1239.5 518.2 1213.79 462.885 1211.5 449.405C1209.2 435.926 1165.1 415.858 1155.48 412.489C1145.87 409.12 1105.15 412.489 1105.15 418.464C1105.15 424.44 1136.39 426.284 1136.39 432.148C1136.39 438.013 1099.29 432.148 1100.59 439.968C1101.89 447.788 1136.39 443.878 1136.39 449.405C1136.39 454.933 1100.59 456.91 1105.15 463.427C1109.71 469.943 1126.21 467.227 1126.21 467.227C1126.21 467.227 1111.02 484.279 1118.18 485.582C1125.35 486.885 1138.05 467.227 1155.48 467.227C1172.92 467.227 1182.77 494.699 1203.86 490.141C1224.95 485.582 1230.59 307.022 1263.69 325.926C1296.79 344.83 1280.24 365.86 1296.79 360.884C1313.33 355.908 1342.99 289.442 1361.24 289.442C1379.49 289.442 1416.63 297.913 1416.63 289.442C1416.63 280.971 1372.97 274.454 1351.52 273.151C1330.08 271.848 1313.33 320.72 1296.79 325.926C1280.24 331.132 1251.77 303.012 1239.5 303.012C1227.24 303.012 1211.5 313.196 1211.5 303.012C1211.5 292.829 1203.86 264.823 1203.86 264.823C1203.86 264.823 1185.95 269.893 1183.49 264.823C1181.03 259.753 1205.51 238.534 1197.68 225.582C1189.85 212.631 1189.85 180.806 1189.85 180.806M1189.85 180.806C1189.85 180.806 1221.73 176.431 1231.86 180.806C1241.99 185.181 1241.99 204.73 1241.99 204.73C1241.99 204.73 1263.69 218.414 1263.69 230.452C1263.69 242.49 1286.6 205.521 1305.7 212.631C1324.8 219.74 1285 240.57 1287.61 248.389C1290.21 256.209 1293.61 276.409 1313.02 273.151C1332.43 269.893 1340.25 234.679 1326.05 170.845C1311.86 107.011 1203.86 144.78 1193.12 149.342C1182.38 153.903 1189.85 180.806 1189.85 180.806ZM1319.88 155.674C1319.88 155.674 1583.45 271.848 1919.03 177.362" stroke="white" stroke-width="3"/>
<path d="M-0.391602 337.564C92.3874 343.75 223.904 211.297 384.433 211.297C544.963 211.297 721.971 164.621 721.971 164.621" stroke="white" stroke-width="3"/>
<path d="M720.965 166.13C720.965 166.13 731.027 151.54 717.875 139.92C704.723 128.3 631.917 134.938 602.234 128.901C572.551 122.864 573.054 222.98 581.104 241.092C589.154 259.203 611.13 208.893 624.873 209.9C638.617 210.906 638.617 234.19 638.617 234.19C638.617 234.19 638.617 248.135 628.409 246.799C618.202 245.464 611.13 204.365 624.873 199.838C638.617 195.31 651.827 230.587 651.827 230.587C651.827 230.587 665.624 209.9 668.639 192.759C671.654 175.619 664.618 172.167 675.686 169.149C686.755 166.13 703.978 166.176 712.472 172.945C720.965 179.714 708.869 234.19 708.869 234.19C708.869 234.19 724.487 253.166 717.875 257.607C711.264 262.049 701.847 257.607 696.313 261.21C690.779 264.813 702.351 288.383 692.056 293.034C681.762 297.684 665.121 300.96 651.827 304.442C638.532 307.924 651.827 332.655 638.617 331.649C625.407 330.643 599.215 264.737 583.619 261.21C568.023 257.683 546.893 266.247 522.745 288.383C498.596 310.519 493.911 373.493 519.729 404.716C545.547 435.939 634.414 502.172 673.443 506.191C712.472 510.211 833.007 470.054 844.493 462.915C855.978 455.776 850.874 434.738 850.874 434.738M850.874 434.738C850.874 434.738 844.089 416.725 855.978 404.716C867.867 392.707 893.25 330.777 901.612 334.832C909.974 338.887 901.612 373.493 901.612 373.493C901.612 373.493 952.268 354.685 956.853 358.482C961.438 362.279 925.257 378.897 930.433 383.1C935.609 387.303 960.394 363.886 964.658 368.69C968.923 373.493 935.55 390.974 939.293 393.781C943.035 396.589 980.997 374.694 984.473 378.897C987.949 383.1 942.1 401.579 946.045 404.716C949.99 407.853 964.658 400.331 964.658 407.193C964.658 414.055 922.45 429.962 905.815 435.939C889.18 441.917 850.874 434.738 850.874 434.738Z" stroke="white" stroke-width="3"/>
</g>
<defs>
<clipPath id="clip0_115_10">
<rect width="1920" height="721" fill="white"/>
</clipPath>
</defs>
</svg>
