<svg data-v-8e0e85e6="" width="20" height="20" viewBox="0 0 28 28" fill="none" xmlns="http://www.w3.org/2000/svg"><path d="M25.334 13.4962C25.334 19.6598 20.1099 24.6574 13.6673 24.6574C12.9098 24.6582 12.1545 24.5882 11.4103 24.4487C10.8747 24.3479 10.6068 24.2976 10.42 24.3263C10.2331 24.3547 9.96792 24.4958 9.43805 24.7775C7.9392 25.5746 6.19132 25.8561 4.51026 25.5434C5.14916 24.7577 5.5855 23.8148 5.7781 22.8039C5.89477 22.1857 5.60565 21.585 5.17271 21.1453C3.20613 19.1484 2.00065 16.4576 2.00065 13.4962C2.00065 7.33255 7.22477 2.33496 13.6673 2.33496C20.1099 2.33496 25.334 7.33255 25.334 13.4962Z" stroke="#535350" stroke-width="1.75" stroke-linejoin="round"></path><path d="M8.46484 17.0418L9.56535 14.8407M9.56535 14.8407L11.7665 10.4385L13.9677 14.8407M9.56535 14.8407H13.9677M15.0682 17.0418L13.9677 14.8407" stroke="#535350" stroke-width="1.65083" stroke-linecap="round" stroke-linejoin="round"></path><path d="M18.3711 10.4385L18.3711 17.0418" stroke="#535350" stroke-width="1.65083" stroke-linecap="round"></path></svg>