<svg data-v-8e0e85e6="" xmlns="http://www.w3.org/2000/svg" width="28" height="28" viewBox="0 0 28 28" fill="none"><path d="M10.5719 5.63072L3.77896 11.5749C3.19643 12.0847 3.58701 12.99 4.38944 12.99C4.87969 12.99 5.27711 13.357 5.27711 13.8099V17.594C5.27711 20.8495 5.27711 22.4772 6.37205 23.4886C7.467 24.5 9.22929 24.5 12.7539 24.5H15.2461C18.7707 24.5 20.533 24.5 21.6279 23.4886C22.7229 22.4772 22.7229 20.8495 22.7229 17.594V13.8099C22.7229 13.357 23.1203 12.99 23.6105 12.99C24.413 12.99 24.8036 12.0847 24.221 11.5749L17.428 5.63072C15.8047 4.21024 14.9931 3.5 14 3.5C13.0069 3.5 12.1953 4.21024 10.5719 5.63072Z" stroke="currentColor" stroke-width="1.75" stroke-linecap="round" stroke-linejoin="round"></path><path d="M14 18.668H14.0105" stroke="currentColor" stroke-width="3" stroke-linecap="round" stroke-linejoin="round"></path></svg>