<?xml version="1.0" encoding="UTF-8"?><svg id="Layer_2" xmlns="http://www.w3.org/2000/svg" viewBox="0 0 1649.42 666.05"><defs><style>.cls-1{fill:#fff;stroke-width:0px;}</style></defs><g id="Layer_1-2"><path class="cls-1" d="m1187.11,453.88c-.38-.53-2.03-.72-2.76-.35-2.58,1.3-5.13,2.74-7.48,4.42-12.6,8.97-25.19,17.96-37.66,27.1-2.51,1.84-4.32,1.82-6.18-.54-3.22-4.08-6.56-8.08-9.61-12.29-5.57-7.66-5.87-13.49-.03-20.9,3.74-4.74,8.52-8.72,13.11-12.72,7.95-6.92,16.53-13.19,24.04-20.55,4.01-3.93,7.06-9.28,9.21-14.54,2.94-7.16-.85-13.19-8.42-14.75-2.65-.54-5.47-.55-8.2-.43-7.85.36-14.09,4.66-20.52,8.54-23.95,14.48-43.55,33.31-56.81,58.07-3.69,6.89-6.83,14.7-7.56,22.35-.81,8.34-3.47,12.12-11.51,15.25-11.88,4.63-22.94,11.52-34.02,17.99-8.66,5.05-17.77,7.29-27.63,6.98-5.2-.17-8.59-3.04-9.54-7.64-.89-4.36,1.65-6.8,4.73-9.12,22.06-16.66,42.85-34.75,60.91-55.74,4.21-4.9,7.87-10.65,10.3-16.62,3.44-8.4-1.25-14.99-10.32-15.75-3.16-.27-6.45-.09-9.59.44-13.43,2.3-25.18,8.54-36.08,16.34-16.01,11.46-30.5,24.69-43.34,39.58-5.66,6.56-11.46,13.57-14.84,21.39-5.75,13.29-15.15,23.08-25.59,32.35-3.66,3.25-7.11,6.76-10.79,9.99-13.8,12.13-27.57,24.31-41.56,36.22-3.45,2.94-7.57,5.2-11.62,7.33-2.98,1.57-6.72,4.41-9.66,1.35-3.01-3.14.27-6.58,1.93-9.49,1.5-2.64,3.4-5.11,5.42-7.4,16.85-19.04,33.83-37.97,50.64-57.04,7.43-8.44,14-17.47,16.75-28.66,3.71-15.11-5.6-31.37-20.72-34.88-18.4-4.28-35.83-1.29-51.98,8.78-5.56,3.46-11.26,6.74-17.11,9.7-3.17,1.6-5.21.21-5.48-3.58-.65-9.35-5.5-12.78-14.78-10.62-15.63,3.63-29.45,11-42.33,20.34-15.36,11.13-28.59,24.49-41.06,38.68-2.93,3.32-6.05,6.51-9.37,9.44-.94.83-3.55,1.26-4.27.61-7.71-6.96-15.58-13.83-22.62-21.45-4.56-4.93-4.02-10.62.28-15.9,2.3-2.82,5.17-5.19,7.88-7.66,6.2-5.65,7.1-12.26,2.54-19.31-6.9-10.65-16.99-13.7-28.9-9.2-8.19,3.09-13.25,8.23-12.87,17.35.41,10.19-3.78,18.63-10.4,25.7-11.62,12.39-23.63,24.41-35.73,36.33-5.77,5.69-11.93,11.04-18.32,16.01-2.11,1.64-5.51,1.61-8.32,2.35-.76-2.97-1.55-5.92-2.24-8.9-.13-.55.13-1.21.31-1.79,2.33-7.59,3.99-15.47,7.19-22.67,5.58-12.56,12.33-24.6,18.16-37.06,2.37-5.05,4.23-10.53,5.2-16.01,1.04-5.85-1.95-8.64-7.86-8.4-3.03.13-6.03.98-9.05,1.39-3.89.52-6.21-2-5.29-5.78.33-1.31.93-2.59,1.56-3.8,3.74-7.14,1.34-11.86-6.69-12.01-5.62-.1-11.37.3-16.87,1.38-23.21,4.58-45.43,12.5-67.34,21.17-116.52,46.1-229.41,100.02-340.04,158.72-18.72,9.94-36.39,22.01-53.9,34.02-6.36,4.37-11.45,11.03-16,17.44-3.8,5.34-.69,10.52,5.98,10.62,4.15.06,8.64-.71,12.45-2.35,13.63-5.84,27.29-11.71,40.47-18.47,96.46-49.43,195.03-94.3,294.69-136.82,2.24-.96,4.56-1.79,6.91-2.42,3.18-.85,4.23.88,2.91,3.46-1.58,3.1-3.61,6.03-5.78,8.78-11.88,15.01-24.17,29.71-35.64,45.02-4.51,6.01-8.11,13.03-10.63,20.12-3.41,9.6.3,14.21,10.49,14.85,9.68.6,19.17-1.28,27.66-5.5,17.37-8.64,34.64-17.63,51.23-27.66,10.81-6.54,20.31-15.24,30.54-22.78,1.65-1.21,5.34-2.46,5.91-1.81,1.48,1.72,2.11,4.43,2.4,6.83.2,1.71-.86,3.54-1.11,5.35-1.06,7.56-2.44,15.12-2.94,22.72-1,14.9,3.77,21.65,22.77,16.87,2.05-.51,4.07-1.43,5.9-2.49,4.76-2.77,9.78-5.26,14.04-8.68,16.11-12.96,31.99-26.19,47.88-39.42,15.07-12.54,29.96-25.29,45.1-37.74,4.84-3.99,9.38-3.54,12.61,1.49,5.53,8.59,9.91,17.94,7.84,28.46-1.56,7.89-4.38,15.55-6.89,23.23-1.9,5.8-4.46,11.39-6.16,17.24-.58,2.01-.14,5.83,1.09,6.5,1.85,1.01,5.18.67,7.23-.38,3.91-1.99,7.7-4.51,10.94-7.47,19-17.4,36.98-35.76,52.92-56.08,9.53-12.16,19.2-24.32,29.88-35.44,6.02-6.27,13.95-10.87,21.53-15.38,4.58-2.72,8.55.71,6.94,5.87-.97,3.08-3.55,5.87-5.94,8.26-5.68,5.7-12.72,10.34-17.29,16.77-6.6,9.29-11.76,19.65-17.02,29.81-2.94,5.67-5.16,11.78-7.11,17.88-1.6,5,.94,7.65,5.95,6,4.27-1.4,8.51-3.6,12.04-6.36,14.16-11.08,24.85-24.9,30.78-42.02,3.61-10.45,11.02-16.52,21.46-18.55,6.4-1.25,13.11-1.77,19.61-1.37,12.84.79,20.81,8.78,21.3,21.54.81,21.17-6.28,39.63-20.66,55.24-4.36,4.73-9.35,9.04-12.89,14.31-3.87,5.74-6.66,12.27-9.37,18.68-1.39,3.28-1.33,7.09,2.02,9.64,3.37,2.56,7.11,2.49,10.85.76,1.52-.7,3.03-1.5,4.43-2.41,17.57-11.44,35.16-22.85,52.66-34.4,10.48-6.91,20.81-14.05,31.2-21.1,3.62-2.46,6.9-2.55,10.35.6,7.38,6.74,16.32,8.14,25.77,6.37,24.33-4.54,46.04-15.39,66.7-28.5,10.77-6.84,20.74-14.66,28.27-25.26,1.74-2.45,4.66-4.07,7.7-6.64.75,2.27,1.19,3.11,1.29,3.99.99,9.33,5.71,16.65,12.35,22.94,6.56,6.21,13.03,12.53,19.71,18.61,12.38,11.27,16.94,25.13,14,41.48-2.14,11.84-7.04,22.2-17.3,29.21-8.25,5.64-17.11,6.52-26.05,1.78-8.94-4.74-13.55-12.28-12.71-22.54.4-4.85.78-9.91,2.43-14.41,4.49-12.33,9.76-24.37,14.47-36.63.92-2.38.7-5.2,1.01-7.82-2.91.24-5.89.17-8.71.82-1.85.43-3.64,1.67-5.17,2.9-7.03,5.64-14.63,10.78-20.81,17.25-19.46,20.35-28.29,44.31-22.74,72.68,4.03,20.64,15.63,32.16,36.45,34.87,19.52,2.54,36.59-4.13,51.79-15.77,22.7-17.38,38.51-40.07,49.03-66.44,4.64-11.63,5.02-23.86,2.96-36.17-2.52-15.04-8.87-28.57-16.66-41.48-1.95-3.24-1.35-4.83,1.66-6.94,12.79-8.96,25.41-18.17,38.02-27.39,2.07-1.52,3.9-3.43,5.58-5.39.52-.61.58-2.23.13-2.87Zm-192.82,1.19c.89-2,3.7-5.54,5.77-5.58,1.48-.03,3.02.89,3.01,3.64-.02,5.66-3.25,10.12-7.39,10.22-1.6,0-3.31-.84-3.05-3.21.16-1.45.68-3.14,1.66-5.08Zm-426.85,17.69c-10.74,12.74-20.88,26.15-32.83,37.65-21.39,20.59-46.41,36.49-72.08,51.26-4.06,2.34-8.55,3.95-12.84,5.89-3.32-.37-4.34-2.08-3.28-4.57,1.32-3.07,2.78-6.24,4.91-8.76,22.14-26.31,45.55-51.32,74.31-70.69,11.41-7.68,23.87-13.06,36.98-16.98,2-.6,4.32-.1,6.5-.11-.53,2.13-.4,4.81-1.67,6.31Z"/><path class="cls-1" d="m0,357.57c1.93-3.24,3-6.18,5-8.21,9.79-9.9,19.32-20.13,29.86-29.19,49.62-42.68,103.69-79.03,160.33-111.71C341.71,123.92,495.99,57.22,657.61,7.39c9.33-2.88,18.88-5.17,28.48-6.93,4.68-.86,9.82-.43,14.56.45,8.25,1.54,11.52,7.59,8.33,15.43-1.76,4.31-4.34,8.49-7.34,12.06-20.6,24.5-41.31,48.91-62.22,73.14-4.97,5.76-10.51,11.18-16.42,15.97-6.45,5.22-12.37,3.2-13.91-4.96-.88-4.65-.38-10.34,1.59-14.59,3.51-7.55,8.44-14.47,13.11-21.43,3.57-5.33,7.77-10.23,11.4-15.53.9-1.31,1.46-3.92.75-4.99-.73-1.1-3.35-1.75-4.88-1.4-8.18,1.87-16.58,3.33-24.35,6.35-36.07,14-72.01,28.35-107.91,42.78-64.43,25.91-128.99,51.52-193.15,78.07-71.41,29.55-140.49,63.86-204.57,107.31-29.38,19.92-57.41,41.84-86.04,62.87-6.73,4.95-9.15,6.02-15.03,5.56Z"/><path class="cls-1" d="m1407.58,301.58c3.69-.57,7.44-.85,11.05-1.74,28.37-6.95,56.6-14.55,85.1-20.91,36.6-8.17,73.48-15.04,110.87-18.66,8.37-.81,16.82-.94,25.24-1.04,3.02-.04,6.06.94,9.58,1.54-2.09,4.31-4.52,6.27-8.19,6.65-13.25,1.38-26.47,3.17-39.75,4.09-31.96,2.21-63.06,9.08-93.54,18.29-39.52,11.94-78.72,24.94-117.88,38.02-5.02,1.68-9.79,5.86-13.28,10.04-7.24,8.68-13.83,17.94-20.18,27.31-46.77,69.09-93.34,138.31-140.18,207.35-6.52,9.61-14.09,18.51-21.36,27.58-1.06,1.32-3.74,2.87-4.73,2.39-1.59-.78-3.1-3.04-3.41-4.89-1.18-7.03.4-13.85,3.86-19.92,14.54-25.52,28.92-51.15,44.14-76.26,25.39-41.88,51.41-83.38,77.07-125.09,3.6-5.85,6.73-12.01,9.9-18.11.62-1.2,1.06-3.69.53-4.06-1.19-.82-3.09-1.02-4.62-.85-1.94.22-3.89.89-5.7,1.67-19.53,8.39-39.06,16.81-58.54,25.32-2.79,1.22-5.46,2.78-8,4.47-4.1,2.72-4.22,6.67.15,8.91,3.44,1.75,7.52,2.27,11.34,3.25,4.98,1.28,10.04,2.29,14.92,3.86,1.21.39,1.88,2.47,2.8,3.78-1.36.81-2.7,2.29-4.08,2.32-7.32.19-14.72.63-21.97-.16-15.82-1.72-31.57-4.07-47.33-6.3-2.55-.36-5.08-1.18-7.49-2.13-6.65-2.63-7.36-6.37-1.6-10.47,4.58-3.26,9.56-6.14,14.72-8.36,17.57-7.55,35.27-14.79,52.96-22.03,24.78-10.14,49.46-20.53,74.46-30.08,11.96-4.57,21.1-11.97,28.86-21.78,33.85-42.8,70.1-83.53,107.19-123.52,2.81-3.03,5.76-5.96,8.9-8.62,4.06-3.44,8.87-2.51,10.15,2.55,1.15,4.56,1.72,9.96.37,14.31-2.23,7.2-5.57,14.26-9.56,20.68-12.84,20.61-28.9,38.76-44.98,56.86-8.34,9.39-16.85,18.63-25.26,27.97-1.18,1.32-2.21,2.78-3.3,4.17.26.54.52,1.07.78,1.61Z"/><path class="cls-1" d="m497.28,286.75c-2.38,1.72-4.56,3.85-7.17,5.08-9.54,4.5-19.19,8.79-28.87,13-119.65,52.09-239.35,104.09-358.9,156.41-7.55,3.3-14.13,8.93-20.92,13.8-3.46,2.49-6.25,5.88-9.6,8.55-2.37,1.88-5,3.65-7.8,4.71-3.62,1.37-8.4,2.25-10.49-1.38-1.31-2.29-.2-6.81,1.2-9.64,4.11-8.28,10.73-14.64,18.61-19.26,20.85-12.21,41.45-25.01,63.02-35.83,90.85-45.6,183.93-86.25,278.65-123.15,23.72-9.24,48.03-15.6,73.73-15.14,2.64.05,5.27.6,7.91.91.21.65.41,1.29.62,1.94Z"/></g></svg>