<svg t="1747641424376" class="icon" viewBox="0 0 1024 1024" version="1.1" xmlns="http://www.w3.org/2000/svg" p-id="10063" width="200" height="200"><path d="M838.3488 529.8176c16.5888-62.8224 32.256-122.1632 32.0512-169.984C869.888 192.512 729.1904 51.2 563.1488 51.2l-3.9424 0.0512c-169.8304 2.304-319.6928 146.9952-322.56 310.4768a129.28 129.28 0 0 0-0.5632 18.3296l0.1024 5.7856C163.072 475.9552 153.6 509.5424 153.6 528.896c0 31.5904 16.9984 58.2144 46.5408 73.0112 9.5232 4.8128 24.4736 7.3728 59.0848 10.1376l7.168 0.5632L266.24 704c0.6144 43.4176 35.0208 78.336 77.2608 78.336h73.216l-0.2048 161.536c0 9.6256 4.4544 18.5856 12.0832 24.064a26.88 26.88 0 0 0 25.8048 2.8672l340.7872-141.5168a29.184 29.184 0 0 0 16.6912-33.6384c-0.1536-0.6144-14.336-63.7952-1.536-144.384 6.0416-37.6832 17.2032-80.2816 28.0576-121.3952z m-53.3504-15.36c-11.2128 42.5984-22.784 86.5792-29.2864 127.2832a502.5792 502.5792 0 0 0-1.9456 142.4896l-281.856 117.0432 0.2048-147.8656a29.6448 29.6448 0 0 0-8.0896-20.48 27.136 27.136 0 0 0-19.6096-8.448H342.8864a21.6576 21.6576 0 0 1-21.248-20.8384l0.2048-117.9136a28.416 28.416 0 0 0-25.7536-28.8768l-32.6144-2.5088c-27.8528-2.2016-37.376-3.9424-39.424-4.608-15.0528-7.5264-15.0528-17.2032-15.0528-20.48 0.0512-1.024 3.072-24.832 72.4992-109.8752l2.56-3.1232c7.68-9.472 7.5264-19.2 7.3728-36.864-0.0512-3.072-0.1024-6.0928-0.0512-8.2944a29.0304 29.0304 0 0 0 0.5632-5.7344c0.768-132.1984 128.512-254.3616 267.9808-256.256h3.2256c136.0896 0 251.392 114.8928 251.904 250.88 0.1024 39.936-15.2576 98.2016-30.0544 154.4704z m-226.4064-354.304c-93.7472 0-173.0048 50.0736-173.0048 109.3632 0 66.6112 95.1808 66.6112 179.2 66.6112 83.968 0 179.2 0 179.2-66.56 0-60.3648-83.2-109.4656-185.344-109.4656z m5.3248 118.1696c-98.304 0-122.88-5.12-127.1296-8.8064 0-23.3472 53.4016-51.5584 119.7056-51.5584 77.056 0 134.656 27.2384 136.2944 52.1216-5.8368 3.072-30.464 8.2432-128.8192 8.2432z" fill="#000000" p-id="10064"></path><path d="M760.32 66.56a33.28 33.28 0 1 1 0-66.56h76.8A186.88 186.88 0 0 1 1024 186.88v650.24A186.88 186.88 0 0 1 837.12 1024h-76.8a33.28 33.28 0 1 1 0-66.56h76.8a120.32 120.32 0 0 0 120.32-120.32V186.88a120.32 120.32 0 0 0-120.32-120.32h-76.8z m-496.64 890.88a33.28 33.28 0 1 1 0 66.56h-76.8A186.88 186.88 0 0 1 0 837.12V186.88A186.88 186.88 0 0 1 186.88 0h76.8a33.28 33.28 0 1 1 0 66.56h-76.8A120.32 120.32 0 0 0 66.56 186.88v650.24a120.32 120.32 0 0 0 120.32 120.32h76.8z" fill="#000000" p-id="10065"></path></svg>